<svg width="736" height="147" viewBox="0 0 736 147" fill="none" xmlns="http://www.w3.org/2000/svg">
<path d="M731.415 144.968C731.415 143.867 732.308 142.973 733.407 142.973C734.507 142.973 735.399 143.867 735.399 144.968C735.399 146.069 734.507 146.962 733.407 146.962C732.308 146.962 731.415 146.069 731.415 144.968ZM721.894 144.968C721.894 143.867 722.786 142.973 723.885 142.973C724.985 142.973 725.878 143.867 725.878 144.968C725.878 146.069 724.985 146.962 723.885 146.962C722.786 146.962 721.894 146.069 721.894 144.968ZM712.38 144.968C712.38 143.867 713.272 142.973 714.372 142.973C715.471 142.973 716.364 143.867 716.364 144.968C716.364 146.069 715.471 146.962 714.372 146.962C713.272 146.962 712.38 146.069 712.38 144.968ZM702.858 144.968C702.858 143.867 703.751 142.973 704.858 142.973C705.958 142.973 706.842 143.867 706.842 144.968C706.842 146.069 705.958 146.962 704.858 146.962C703.751 146.962 702.858 146.069 702.858 144.968ZM693.344 144.968C693.344 143.867 694.237 142.973 695.336 142.973C696.436 142.973 697.328 143.867 697.328 144.968C697.328 146.069 696.436 146.962 695.336 146.962C694.237 146.962 693.344 146.069 693.344 144.968ZM683.831 144.968C683.831 143.867 684.723 142.973 685.823 142.973C686.922 142.973 687.815 143.867 687.815 144.968C687.815 146.069 686.922 146.962 685.823 146.962C684.723 146.962 683.831 146.069 683.831 144.968ZM674.309 144.968C674.309 143.867 675.202 142.973 676.301 142.973C677.401 142.973 678.293 143.867 678.293 144.968C678.293 146.069 677.401 146.962 676.301 146.962C675.202 146.962 674.309 146.069 674.309 144.968ZM664.795 144.968C664.795 143.867 665.688 142.973 666.787 142.973C667.887 142.973 668.779 143.867 668.779 144.968C668.779 146.069 667.887 146.962 666.787 146.962C665.688 146.962 664.795 146.069 664.795 144.968ZM655.274 144.968C655.274 143.867 656.166 142.973 657.266 142.973C658.365 142.973 659.258 143.867 659.258 144.968C659.258 146.069 658.365 146.962 657.266 146.962C656.166 146.962 655.274 146.069 655.274 144.968ZM645.76 144.968C645.76 143.867 646.652 142.973 647.752 142.973C648.852 142.973 649.744 143.867 649.744 144.968C649.744 146.069 648.852 146.962 647.752 146.962C646.652 146.962 645.76 146.069 645.76 144.968ZM636.246 144.968C636.246 143.867 637.131 142.973 638.238 142.973C639.338 142.973 640.23 143.867 640.23 144.968C640.23 146.069 639.338 146.962 638.238 146.962C637.131 146.962 636.246 146.069 636.246 144.968ZM626.725 144.968C626.725 143.867 627.617 142.973 628.717 142.973C629.816 142.973 630.709 143.867 630.709 144.968C630.709 146.069 629.816 146.962 628.717 146.962C627.617 146.962 626.725 146.069 626.725 144.968ZM617.211 144.968C617.211 143.867 618.103 142.973 619.203 142.973C620.303 142.973 621.195 143.867 621.195 144.968C621.195 146.069 620.303 146.962 619.203 146.962C618.103 146.962 617.211 146.069 617.211 144.968ZM607.689 144.968C607.689 143.867 608.582 142.973 609.681 142.973C610.781 142.973 611.673 143.867 611.673 144.968C611.673 146.069 610.781 146.962 609.681 146.962C608.582 146.962 607.689 146.069 607.689 144.968ZM598.176 144.968C598.176 143.867 599.068 142.973 600.168 142.973C601.267 142.973 602.16 143.867 602.16 144.968C602.16 146.069 601.267 146.962 600.168 146.962C599.068 146.962 598.176 146.069 598.176 144.968ZM588.654 144.968C588.654 143.867 589.546 142.973 590.654 142.973C591.754 142.973 592.638 143.867 592.638 144.968C592.638 146.069 591.754 146.962 590.654 146.962C589.546 146.962 588.654 146.069 588.654 144.968ZM579.14 144.968C579.14 143.867 580.033 142.973 581.132 142.973C582.232 142.973 583.124 143.867 583.124 144.968C583.124 146.069 582.232 146.962 581.132 146.962C580.033 146.962 579.14 146.069 579.14 144.968ZM569.627 144.968C569.627 143.867 570.519 142.973 571.619 142.973C572.718 142.973 573.611 143.867 573.611 144.968C573.611 146.069 572.718 146.962 571.619 146.962C570.519 146.962 569.627 146.069 569.627 144.968ZM560.105 144.968C560.105 143.867 560.997 142.973 562.097 142.973C563.197 142.973 564.089 143.867 564.089 144.968C564.089 146.069 563.197 146.962 562.097 146.962C560.997 146.962 560.105 146.069 560.105 144.968ZM550.591 144.968C550.591 143.867 551.484 142.973 552.583 142.973C553.683 142.973 554.575 143.867 554.575 144.968C554.575 146.069 553.683 146.962 552.583 146.962C551.484 146.962 550.591 146.069 550.591 144.968ZM541.07 144.968C541.07 143.867 541.962 142.973 543.062 142.973C544.161 142.973 545.054 143.867 545.054 144.968C545.054 146.069 544.161 146.962 543.062 146.962C541.962 146.962 541.07 146.069 541.07 144.968ZM531.556 144.968C531.556 143.867 532.448 142.973 533.548 142.973C534.648 142.973 535.54 143.867 535.54 144.968C535.54 146.069 534.648 146.962 533.548 146.962C532.448 146.962 531.556 146.069 531.556 144.968ZM522.042 144.968C522.042 143.867 522.927 142.973 524.026 142.973C525.134 142.973 526.026 143.867 526.026 144.968C526.026 146.069 525.134 146.962 524.026 146.962C522.927 146.962 522.042 146.069 522.042 144.968ZM512.521 144.968C512.521 143.867 513.413 142.973 514.513 142.973C515.612 142.973 516.505 143.867 516.505 144.968C516.505 146.069 515.612 146.962 514.513 146.962C513.413 146.962 512.521 146.069 512.521 144.968ZM503.007 144.968C503.007 143.867 503.899 142.973 504.999 142.973C506.098 142.973 506.991 143.867 506.991 144.968C506.991 146.069 506.098 146.962 504.999 146.962C503.899 146.962 503.007 146.069 503.007 144.968ZM493.485 144.968C493.485 143.867 494.378 142.973 495.477 142.973C496.577 142.973 497.469 143.867 497.469 144.968C497.469 146.069 496.577 146.962 495.477 146.962C494.378 146.962 493.485 146.069 493.485 144.968ZM483.972 144.968C483.972 143.867 484.864 142.973 485.964 142.973C487.063 142.973 487.956 143.867 487.956 144.968C487.956 146.069 487.063 146.962 485.964 146.962C484.864 146.962 483.972 146.069 483.972 144.968ZM474.45 144.968C474.45 143.867 475.342 142.973 476.45 142.973C477.549 142.973 478.434 143.867 478.434 144.968C478.434 146.069 477.549 146.962 476.45 146.962C475.342 146.962 474.45 146.069 474.45 144.968ZM464.936 144.968C464.936 143.867 465.829 142.973 466.928 142.973C468.028 142.973 468.92 143.867 468.92 144.968C468.92 146.069 468.028 146.962 466.928 146.962C465.829 146.962 464.936 146.069 464.936 144.968ZM455.423 144.968C455.423 143.867 456.315 142.973 457.415 142.973C458.514 142.973 459.407 143.867 459.407 144.968C459.407 146.069 458.514 146.962 457.415 146.962C456.315 146.962 455.423 146.069 455.423 144.968ZM445.901 144.968C445.901 143.867 446.793 142.973 447.893 142.973C448.992 142.973 449.885 143.867 449.885 144.968C449.885 146.069 448.992 146.962 447.893 146.962C446.793 146.962 445.901 146.069 445.901 144.968ZM436.387 144.968C436.387 143.867 437.28 142.973 438.379 142.973C439.479 142.973 440.371 143.867 440.371 144.968C440.371 146.069 439.479 146.962 438.379 146.962C437.28 146.962 436.387 146.069 436.387 144.968ZM426.866 144.968C426.866 143.867 427.758 142.973 428.858 142.973C429.957 142.973 430.85 143.867 430.85 144.968C430.85 146.069 429.957 146.962 428.858 146.962C427.758 146.962 426.866 146.069 426.866 144.968ZM417.352 144.968C417.352 143.867 418.244 142.973 419.344 142.973C420.443 142.973 421.336 143.867 421.336 144.968C421.336 146.069 420.443 146.962 419.344 146.962C418.244 146.962 417.352 146.069 417.352 144.968ZM407.838 144.968C407.838 143.867 408.723 142.973 409.83 142.973C410.93 142.973 411.822 143.867 411.822 144.968C411.822 146.069 410.93 146.962 409.83 146.962C408.723 146.962 407.838 146.069 407.838 144.968ZM398.317 144.968C398.317 143.867 399.209 142.973 400.309 142.973C401.408 142.973 402.3 143.867 402.3 144.968C402.3 146.069 401.408 146.962 400.309 146.962C399.209 146.962 398.317 146.069 398.317 144.968ZM388.803 144.968C388.803 143.867 389.695 142.973 390.795 142.973C391.894 142.973 392.787 143.867 392.787 144.968C392.787 146.069 391.894 146.962 390.795 146.962C389.695 146.962 388.803 146.069 388.803 144.968ZM379.281 144.968C379.281 143.867 380.174 142.973 381.273 142.973C382.373 142.973 383.265 143.867 383.265 144.968C383.265 146.069 382.373 146.962 381.273 146.962C380.174 146.962 379.281 146.069 379.281 144.968ZM369.767 144.968C369.767 143.867 370.66 142.973 371.759 142.973C372.859 142.973 373.751 143.867 373.751 144.968C373.751 146.069 372.859 146.962 371.759 146.962C370.66 146.962 369.767 146.069 369.767 144.968ZM360.246 144.968C360.246 143.867 361.138 142.973 362.246 142.973C363.345 142.973 364.23 143.867 364.23 144.968C364.23 146.069 363.345 146.962 362.246 146.962C361.138 146.962 360.246 146.069 360.246 144.968ZM350.732 144.968C350.732 143.867 351.625 142.973 352.724 142.973C353.824 142.973 354.716 143.867 354.716 144.968C354.716 146.069 353.824 146.962 352.724 146.962C351.625 146.962 350.732 146.069 350.732 144.968ZM341.218 144.968C341.218 143.867 342.111 142.973 343.21 142.973C344.31 142.973 345.202 143.867 345.202 144.968C345.202 146.069 344.31 146.962 343.21 146.962C342.111 146.962 341.218 146.069 341.218 144.968ZM331.697 144.968C331.697 143.867 332.589 142.973 333.689 142.973C334.788 142.973 335.681 143.867 335.681 144.968C335.681 146.069 334.788 146.962 333.689 146.962C332.589 146.962 331.697 146.069 331.697 144.968ZM322.183 144.968C322.183 143.867 323.076 142.973 324.175 142.973C325.275 142.973 326.167 143.867 326.167 144.968C326.167 146.069 325.275 146.962 324.175 146.962C323.076 146.962 322.183 146.069 322.183 144.968ZM312.661 144.968C312.661 143.867 313.554 142.973 314.653 142.973C315.761 142.973 316.645 143.867 316.645 144.968C316.645 146.069 315.761 146.962 314.653 146.962C313.554 146.962 312.661 146.069 312.661 144.968ZM303.148 144.968C303.148 143.867 304.04 142.973 305.14 142.973C306.239 142.973 307.132 143.867 307.132 144.968C307.132 146.069 306.239 146.962 305.14 146.962C304.04 146.962 303.148 146.069 303.148 144.968ZM293.634 144.968C293.634 143.867 294.518 142.973 295.626 142.973C296.726 142.973 297.618 143.867 297.618 144.968C297.618 146.069 296.726 146.962 295.626 146.962C294.518 146.962 293.634 146.069 293.634 144.968ZM284.112 144.968C284.112 143.867 285.005 142.973 286.104 142.973C287.204 142.973 288.096 143.867 288.096 144.968C288.096 146.069 287.204 146.962 286.104 146.962C285.005 146.962 284.112 146.069 284.112 144.968ZM274.599 144.968C274.599 143.867 275.491 142.973 276.591 142.973C277.69 142.973 278.583 143.867 278.583 144.968C278.583 146.069 277.69 146.962 276.591 146.962C275.491 146.962 274.599 146.069 274.599 144.968ZM265.077 144.968C265.077 143.867 265.969 142.973 267.069 142.973C268.169 142.973 269.061 143.867 269.061 144.968C269.061 146.069 268.169 146.962 267.069 146.962C265.969 146.962 265.077 146.069 265.077 144.968ZM255.563 144.968C255.563 143.867 256.456 142.973 257.555 142.973C258.655 142.973 259.547 143.867 259.547 144.968C259.547 146.069 258.655 146.962 257.555 146.962C256.456 146.962 255.563 146.069 255.563 144.968ZM246.042 144.968C246.042 143.867 246.934 142.973 248.042 142.973C249.141 142.973 250.026 143.867 250.026 144.968C250.026 146.069 249.141 146.962 248.042 146.962C246.934 146.962 246.042 146.069 246.042 144.968ZM236.528 144.968C236.528 143.867 237.42 142.973 238.52 142.973C239.62 142.973 240.512 143.867 240.512 144.968C240.512 146.069 239.62 146.962 238.52 146.962C237.42 146.962 236.528 146.069 236.528 144.968ZM227.014 144.968C227.014 143.867 227.907 142.973 229.006 142.973C230.106 142.973 230.998 143.867 230.998 144.968C230.998 146.069 230.106 146.962 229.006 146.962C227.907 146.962 227.014 146.069 227.014 144.968ZM217.493 144.968C217.493 143.867 218.385 142.973 219.485 142.973C220.584 142.973 221.477 143.867 221.477 144.968C221.477 146.069 220.584 146.962 219.485 146.962C218.385 146.962 217.493 146.069 217.493 144.968ZM207.979 144.968C207.979 143.867 208.871 142.973 209.971 142.973C211.071 142.973 211.963 143.867 211.963 144.968C211.963 146.069 211.071 146.962 209.971 146.962C208.871 146.962 207.979 146.069 207.979 144.968ZM198.457 144.968C198.457 143.867 199.35 142.973 200.449 142.973C201.549 142.973 202.441 143.867 202.441 144.968C202.441 146.069 201.549 146.962 200.449 146.962C199.35 146.962 198.457 146.069 198.457 144.968ZM188.944 144.968C188.944 143.867 189.836 142.973 190.936 142.973C192.035 142.973 192.928 143.867 192.928 144.968C192.928 146.069 192.035 146.962 190.936 146.962C189.836 146.962 188.944 146.069 188.944 144.968ZM179.43 144.968C179.43 143.867 180.314 142.973 181.422 142.973C182.521 142.973 183.414 143.867 183.414 144.968C183.414 146.069 182.521 146.962 181.422 146.962C180.314 146.962 179.43 146.069 179.43 144.968ZM169.908 144.968C169.908 143.867 170.801 142.973 171.9 142.973C173 142.973 173.892 143.867 173.892 144.968C173.892 146.069 173 146.962 171.9 146.962C170.801 146.962 169.908 146.069 169.908 144.968ZM160.395 144.968C160.395 143.867 161.287 142.973 162.387 142.973C163.486 142.973 164.379 143.867 164.379 144.968C164.379 146.069 163.486 146.962 162.387 146.962C161.287 146.962 160.395 146.069 160.395 144.968ZM150.873 144.968C150.873 143.867 151.765 142.973 152.865 142.973C153.964 142.973 154.857 143.867 154.857 144.968C154.857 146.069 153.964 146.962 152.865 146.962C151.765 146.962 150.873 146.069 150.873 144.968ZM141.359 144.968C141.359 143.867 142.252 142.973 143.351 142.973C144.451 142.973 145.343 143.867 145.343 144.968C145.343 146.069 144.451 146.962 143.351 146.962C142.252 146.962 141.359 146.069 141.359 144.968ZM131.838 144.968C131.838 143.867 132.738 142.973 133.838 142.973C134.937 142.973 135.822 143.867 135.822 144.968C135.822 146.069 134.937 146.962 133.838 146.962C132.738 146.962 131.838 146.069 131.838 144.968ZM122.324 144.968C122.324 143.867 123.216 142.973 124.316 142.973C125.415 142.973 126.308 143.867 126.308 144.968C126.308 146.069 125.415 146.962 124.316 146.962C123.216 146.962 122.324 146.069 122.324 144.968ZM112.81 144.968C112.81 143.867 113.703 142.973 114.802 142.973C115.902 142.973 116.794 143.867 116.794 144.968C116.794 146.069 115.902 146.962 114.802 146.962C113.703 146.962 112.81 146.069 112.81 144.968ZM103.289 144.968C103.289 143.867 104.181 142.973 105.281 142.973C106.38 142.973 107.273 143.867 107.273 144.968C107.273 146.069 106.38 146.962 105.281 146.962C104.181 146.962 103.289 146.069 103.289 144.968ZM93.7749 144.968C93.7749 143.867 94.6673 142.973 95.7668 142.973C96.8664 142.973 97.7588 143.867 97.7588 144.968C97.7588 146.069 96.8664 146.962 95.7668 146.962C94.6673 146.962 93.7749 146.069 93.7749 144.968ZM84.2532 144.968C84.2532 143.867 85.1456 142.973 86.2452 142.973C87.3448 142.973 88.2372 143.867 88.2372 144.968C88.2372 146.069 87.3448 146.962 86.2452 146.962C85.1456 146.962 84.2532 146.069 84.2532 144.968ZM74.7395 144.968C74.7395 143.867 75.6319 142.973 76.7315 142.973C77.8311 142.973 78.7235 143.867 78.7235 144.968C78.7235 146.069 77.8311 146.962 76.7315 146.962C75.6319 146.962 74.7395 146.069 74.7395 144.968ZM67.0505 146.667C65.9509 146.571 65.1461 145.598 65.2418 144.505C65.3374 143.404 66.3095 142.598 67.4011 142.694C68.5006 142.79 69.3054 143.763 69.2098 144.856C69.1142 145.893 68.2457 146.675 67.2258 146.675C67.17 146.675 67.1062 146.675 67.0505 146.675V146.667ZM57.3934 145.151C56.3177 144.912 55.6484 143.843 55.8874 142.766C56.1344 141.697 57.1942 141.019 58.2698 141.266C59.3455 141.505 60.0148 142.574 59.7758 143.643C59.5686 144.577 58.7479 145.207 57.8396 145.207C57.6882 145.207 57.5448 145.191 57.3934 145.151ZM48.0231 142.367C46.9952 141.984 46.4694 140.835 46.8518 139.806C47.2343 138.769 48.3817 138.242 49.4095 138.625C50.4453 139.008 50.9712 140.157 50.5888 141.194C50.286 141.992 49.529 142.495 48.7163 142.495C48.4932 142.495 48.2542 142.455 48.0231 142.367ZM39.115 138.354C38.1429 137.836 37.7764 136.631 38.2863 135.658C38.8042 134.684 40.0153 134.317 40.9874 134.836H40.9795C41.9515 135.354 42.326 136.559 41.8081 137.532C41.4496 138.203 40.7564 138.593 40.0472 138.593C39.7285 138.593 39.4098 138.514 39.115 138.354ZM30.8124 133.2C29.92 132.554 29.7128 131.31 30.3503 130.416C30.9957 129.523 32.2387 129.315 33.1311 129.953C34.0235 130.6 34.2306 131.844 33.5932 132.738C33.2028 133.28 32.5892 133.575 31.9677 133.575C31.5694 133.575 31.163 133.448 30.8124 133.2ZM23.2668 126.994C22.462 126.236 22.4222 124.975 23.1712 124.169C23.9281 123.364 25.1871 123.324 25.9918 124.082C26.7966 124.84 26.8364 126.1 26.0795 126.898C25.689 127.321 25.1552 127.528 24.6293 127.528C24.1353 127.528 23.6492 127.353 23.2668 126.994ZM16.5976 119.837C15.8965 118.984 16.024 117.731 16.8765 117.029C17.7291 116.335 18.98 116.463 19.6812 117.316C20.3744 118.17 20.2469 119.423 19.3944 120.125C19.0279 120.428 18.5817 120.571 18.1434 120.571C17.5618 120.571 16.9881 120.324 16.5976 119.837ZM10.9245 111.875C10.3428 110.934 10.6376 109.705 11.5699 109.123C12.5101 108.549 13.7372 108.836 14.3109 109.777C14.8925 110.711 14.5977 111.939 13.6655 112.522C13.3388 112.721 12.9802 112.817 12.6217 112.817C11.9523 112.817 11.299 112.482 10.9245 111.875ZM6.3509 103.219C5.9047 102.214 6.35091 101.033 7.36283 100.587C8.36679 100.132 9.53807 100.587 9.99224 101.592C10.4384 102.597 9.98427 103.778 8.98829 104.225C8.71738 104.344 8.44647 104.4 8.17556 104.4C7.41064 104.4 6.68556 103.961 6.3509 103.219ZM2.97251 94.0289C2.66176 92.9758 3.26732 91.8669 4.31909 91.5557C5.37882 91.2446 6.48636 91.8509 6.79711 92.904C7.10786 93.9651 6.5023 95.066 5.44256 95.3851C5.2593 95.433 5.06807 95.4649 4.88481 95.4649C4.02427 95.4649 3.22748 94.8985 2.97251 94.0289ZM0.845077 84.4793C0.67775 83.3943 1.42673 82.3732 2.51037 82.2057C3.60197 82.0381 4.6139 82.788 4.78123 83.873C4.94855 84.966 4.20754 85.9792 3.11593 86.1467C3.01235 86.1627 2.90877 86.1706 2.81315 86.1706C1.84903 86.1706 0.996467 85.4686 0.845077 84.4793ZM0.000477556 74.7383C-0.0234262 73.6374 0.853044 72.7199 1.95262 72.7039C3.05219 72.672 3.96053 73.5496 3.98443 74.6506C4.00834 75.7515 3.13187 76.661 2.0323 76.6849H1.99246C0.90882 76.6849 0.0243813 75.8233 0.000477556 74.7383ZM2.19165 67.1673C1.10005 67.0476 0.311226 66.0583 0.438713 64.9654C0.558232 63.8724 1.53829 63.0826 2.62989 63.2023C3.72946 63.322 4.51828 64.3112 4.39877 65.4042C4.27925 66.4254 3.41871 67.1753 2.41476 67.1753C2.34304 67.1753 2.27133 67.1753 2.19165 67.1673ZM3.60994 57.7454C2.53427 57.4821 1.88887 56.4051 2.15181 55.3361C2.41476 54.2591 3.49839 53.6128 4.56609 53.8761C5.63379 54.1394 6.28716 55.2244 6.01625 56.2934C5.79315 57.2029 4.98042 57.8092 4.08802 57.8092C3.92866 57.8092 3.7693 57.7853 3.60994 57.7454ZM6.25529 48.6027C5.2354 48.1959 4.73342 47.039 5.13978 46.0179C5.53818 44.9887 6.70149 44.4861 7.72139 44.893C8.74128 45.2999 9.24326 46.4567 8.83689 47.4778C8.53411 48.2676 7.77716 48.7463 6.98834 48.7463C6.74133 48.7463 6.49433 48.6985 6.25529 48.6027ZM10.0958 39.8988C9.13171 39.3563 8.78909 38.1437 9.3309 37.1784C9.86476 36.221 11.0759 35.878 12.04 36.4125C12.9961 36.955 13.3388 38.1676 12.8049 39.133C12.4384 39.7792 11.7611 40.1461 11.0679 40.1461C10.7333 40.1461 10.3986 40.0664 10.0958 39.8988ZM15.0519 31.7773C14.1754 31.1152 13.9921 29.8626 14.6535 28.9851C15.3148 28.0995 16.5578 27.924 17.4422 28.5782C18.3187 29.2403 18.502 30.4929 17.8406 31.3704C17.4502 31.897 16.8526 32.1682 16.2471 32.1682C15.8327 32.1682 15.4104 32.0406 15.0519 31.7773ZM21.0437 24.3739C20.2549 23.608 20.239 22.3395 21.0119 21.5576C21.7768 20.7678 23.0437 20.7519 23.8325 21.5257C24.6134 22.2916 24.6293 23.5601 23.8564 24.3419C23.466 24.7408 22.9481 24.9403 22.4381 24.9403C21.9361 24.9403 21.4262 24.7568 21.0437 24.3739ZM27.9519 17.832C27.2746 16.9624 27.426 15.7098 28.2945 15.0317C29.1551 14.3456 30.406 14.5052 31.0913 15.3668C31.7686 16.2364 31.6172 17.4889 30.7487 18.167C30.3821 18.4542 29.9519 18.5899 29.5216 18.5899C28.932 18.5899 28.3423 18.3346 27.9519 17.832ZM35.6649 12.2474C35.1071 11.2981 35.4179 10.0774 36.366 9.51896C37.3142 8.96051 38.5413 9.27964 39.099 10.229C39.6568 11.1784 39.3381 12.399 38.3899 12.9575C38.0712 13.141 37.7206 13.2367 37.378 13.2367C36.7007 13.2367 36.0314 12.8777 35.6649 12.2474ZM44.0471 7.7399C43.6168 6.72671 44.0949 5.55399 45.1068 5.12318C46.1188 4.70035 47.29 5.179 47.7203 6.19219C48.1426 7.20538 47.6645 8.37815 46.6526 8.80098C46.3976 8.91267 46.1347 8.96055 45.8797 8.96055C45.1068 8.96055 44.3658 8.50578 44.0471 7.7399ZM52.9552 4.38918C52.6684 3.32014 53.2899 2.22716 54.3496 1.93996C55.4173 1.65275 56.5089 2.27504 56.7958 3.34407C57.0826 4.40513 56.4611 5.49811 55.3934 5.78531C55.2261 5.83318 55.0508 5.85713 54.8755 5.85713C53.999 5.85713 53.1943 5.27472 52.9552 4.38918ZM62.2219 2.25111C62.0785 1.15813 62.8434 0.160905 63.935 0.0173032C65.0266 -0.126299 66.0306 0.639599 66.174 1.73257C66.3174 2.81757 65.5445 3.82277 64.4609 3.96637C64.3733 3.98233 64.2856 3.98235 64.198 3.98235C63.2099 3.98235 62.3574 3.25632 62.2219 2.25111Z" fill="#600F41"/>
</svg>
