<svg width="66" height="147" viewBox="0 0 66 147" fill="none" xmlns="http://www.w3.org/2000/svg">
<path d="M0.0829779 144.427C-0.0763804 143.342 0.680616 142.329 1.77222 142.17C2.86382 142.01 3.86775 142.768 4.0271 143.861C4.1785 144.954 3.42155 145.967 2.33791 146.119C2.2423 146.135 2.14669 146.143 2.05108 146.143C1.07899 146.143 0.2264 145.425 0.0829779 144.427ZM10.1385 142.529C9.82778 141.475 10.4333 140.367 11.4851 140.055C12.5448 139.744 13.6524 140.351 13.9631 141.404C14.2739 142.465 13.6683 143.574 12.6086 143.885C12.4253 143.941 12.2341 143.965 12.0508 143.965C11.1903 143.965 10.3935 143.398 10.1385 142.529ZM19.8195 139.21C19.3574 138.213 19.8036 137.024 20.7996 136.569C21.8035 136.106 22.9828 136.553 23.4449 137.55C23.8991 138.556 23.4609 139.736 22.4569 140.191C22.194 140.319 21.9071 140.374 21.6282 140.374C20.8793 140.374 20.1542 139.944 19.8195 139.21ZM28.9268 134.543C28.3292 133.617 28.5922 132.381 29.5165 131.782C30.4407 131.184 31.6758 131.455 32.2734 132.381C32.871 133.306 32.6001 134.543 31.6758 135.141C31.3411 135.356 30.9667 135.46 30.6001 135.46C29.9468 135.46 29.3013 135.133 28.9268 134.543ZM37.2693 128.623C36.5522 127.793 36.6398 126.533 37.4685 125.807C38.3051 125.089 39.556 125.177 40.2811 126.006C41.0062 126.836 40.9106 128.097 40.0819 128.823C39.7074 129.15 39.2373 129.309 38.7752 129.309C38.2174 129.309 37.6677 129.078 37.2693 128.623ZM44.7033 121.579C43.8667 120.853 43.779 119.592 44.5041 118.762C45.2212 117.933 46.4802 117.837 47.3088 118.563C48.1375 119.281 48.2331 120.541 47.508 121.371C47.1176 121.826 46.5598 122.065 46.0021 122.065C45.5399 122.065 45.0778 121.906 44.7033 121.579ZM51.0617 113.545C50.1375 112.946 49.8665 111.718 50.4641 110.792C51.0617 109.859 52.2888 109.596 53.221 110.194C54.1453 110.784 54.4082 112.021 53.8186 112.946C53.4361 113.537 52.7907 113.864 52.1374 113.864C51.7709 113.864 51.3964 113.76 51.0617 113.545ZM56.2169 104.689C55.221 104.235 54.7748 103.054 55.2369 102.049C55.6911 101.043 56.8783 100.605 57.8743 101.059C58.8782 101.522 59.3165 102.703 58.8623 103.708C58.5276 104.442 57.8026 104.873 57.0456 104.873C56.7668 104.873 56.4879 104.817 56.2169 104.689ZM60.0575 95.1877C59.0057 94.8765 58.4002 93.7676 58.7109 92.7145C59.0217 91.6535 60.1213 91.0471 61.181 91.3583C62.2328 91.6694 62.8383 92.7784 62.5355 93.8315C62.2805 94.701 61.4838 95.2675 60.6232 95.2675C60.432 95.2675 60.2487 95.2435 60.0575 95.1877ZM62.5036 85.2392C61.412 85.0797 60.6551 84.0744 60.8065 82.9815C60.9658 81.8885 61.9698 81.1306 63.0614 81.2902C64.153 81.4417 64.91 82.4549 64.7506 83.5399C64.6072 84.5372 63.7626 85.2552 62.7825 85.2552C62.6869 85.2552 62.5993 85.2552 62.5036 85.2392ZM61.5077 73.049C61.5077 71.948 62.3921 71.0545 63.4996 71.0545C64.5992 71.0545 65.4916 71.948 65.4916 73.049C65.4916 74.1499 64.5992 75.0435 63.4996 75.0435C62.4001 75.0435 61.5077 74.1499 61.5077 73.049ZM60.7985 63.1085C60.6471 62.0236 61.4041 61.0104 62.4877 60.8588C63.5793 60.6992 64.5912 61.4571 64.7426 62.5501C64.902 63.6351 64.145 64.6483 63.0534 64.8078C62.9578 64.8158 62.8622 64.8238 62.7666 64.8238C61.7945 64.8238 60.9419 64.1058 60.7985 63.1085ZM58.695 53.3835C58.3842 52.3224 58.9898 51.2135 60.0415 50.9103C61.1013 50.5992 62.2088 51.2055 62.5196 52.2586C62.8224 53.3196 62.2248 54.4206 61.165 54.7318C60.9818 54.7876 60.7905 54.8195 60.6073 54.8195C59.7467 54.8195 58.9499 54.2531 58.695 53.3835ZM55.213 44.0573C54.7588 43.0521 55.1971 41.8714 56.1931 41.4166C57.197 40.9539 58.3763 41.3927 58.8384 42.3979C59.2926 43.3951 58.8543 44.5838 57.8583 45.0386C57.5874 45.1662 57.3006 45.2221 57.0297 45.2221C56.2727 45.2221 55.5476 44.7913 55.213 44.0573ZM50.4402 35.3215C49.8426 34.3961 50.1135 33.1675 51.0378 32.5691C51.9621 31.9708 53.1971 32.242 53.7947 33.1675C54.3843 34.0929 54.1214 35.3215 53.1971 35.9198C52.8625 36.1353 52.4879 36.239 52.1214 36.239C51.4601 36.239 50.8227 35.9198 50.4402 35.3215ZM44.4722 27.3596C43.7551 26.5299 43.8428 25.2693 44.6714 24.5434C45.5081 23.8253 46.767 23.9131 47.4841 24.7428C48.2092 25.5805 48.1136 26.841 47.2849 27.559C46.9105 27.8861 46.4403 28.0457 45.9782 28.0457C45.4204 28.0457 44.8706 27.8143 44.4722 27.3596ZM37.4445 20.3151C36.6159 19.5971 36.5282 18.3366 37.2453 17.4989C37.9704 16.6692 39.2294 16.5814 40.058 17.2995C40.8867 18.0254 40.9823 19.2859 40.2572 20.1156C39.8668 20.5704 39.309 20.8017 38.7513 20.8017C38.2892 20.8017 37.827 20.6422 37.4525 20.3151H37.4445ZM29.4846 14.3396C28.5524 13.7413 28.2894 12.5127 28.887 11.5872C29.4766 10.6618 30.7117 10.3906 31.6359 10.9889C32.5602 11.5793 32.8311 12.8159 32.2335 13.7413C31.8511 14.3396 31.2136 14.6588 30.5603 14.6588C30.1858 14.6588 29.8113 14.555 29.4846 14.3396ZM20.7517 9.56088C19.7558 9.09816 19.3175 7.91743 19.7717 6.9202C20.2259 5.91498 21.4131 5.4762 22.4091 5.93094C23.413 6.39366 23.8513 7.57439 23.3971 8.57163C23.0625 9.3056 22.3374 9.74436 21.5804 9.74436C21.3016 9.74436 21.0227 9.68055 20.7517 9.56088ZM11.4293 6.07454C10.3776 5.77138 9.772 4.66242 10.0827 3.60136C10.3935 2.54828 11.501 1.94196 12.5528 2.2531C13.6125 2.55626 14.2101 3.66521 13.9073 4.72627C13.6524 5.59587 12.8556 6.16229 11.995 6.16229C11.8038 6.16229 11.6206 6.13039 11.4293 6.07454ZM1.71644 3.96836C0.624835 3.81678 -0.132121 2.80358 0.0192696 1.71859C0.178628 0.625618 1.18255 -0.132286 2.27415 0.0192937C3.36576 0.178852 4.12276 1.18408 3.9634 2.27705C3.82794 3.27429 2.97535 3.99227 1.9953 3.99227C1.90765 3.99227 1.81205 3.9923 1.71644 3.96836Z" fill="#600F41"/>
</svg>
