<svg width="664" height="147" viewBox="0 0 664 147" fill="none" xmlns="http://www.w3.org/2000/svg">
<path d="M583.674 144.954C583.674 143.853 584.566 142.959 585.666 142.959C586.765 142.959 587.658 143.853 587.658 144.954C587.658 146.055 586.765 146.948 585.666 146.948C584.566 146.948 583.674 146.055 583.674 144.954ZM574.104 144.954C574.104 143.853 574.997 142.959 576.096 142.959C577.196 142.959 578.088 143.853 578.088 144.954C578.088 146.055 577.196 146.948 576.096 146.948C574.997 146.948 574.104 146.055 574.104 144.954ZM564.535 144.954C564.535 143.853 565.427 142.959 566.527 142.959C567.626 142.959 568.519 143.853 568.519 144.954C568.519 146.055 567.626 146.948 566.527 146.948C565.427 146.948 564.535 146.055 564.535 144.954ZM554.965 144.954C554.965 143.853 555.858 142.959 556.957 142.959C558.057 142.959 558.949 143.853 558.949 144.954C558.949 146.055 558.057 146.948 556.957 146.948C555.858 146.948 554.965 146.055 554.965 144.954ZM545.404 144.954C545.404 143.853 546.288 142.959 547.396 142.959C548.495 142.959 549.38 143.853 549.38 144.954C549.38 146.055 548.495 146.948 547.396 146.948C546.288 146.948 545.404 146.055 545.404 144.954ZM535.834 144.954C535.834 143.853 536.727 142.959 537.826 142.959C538.926 142.959 539.818 143.853 539.818 144.954C539.818 146.055 538.926 146.948 537.826 146.948C536.727 146.948 535.834 146.055 535.834 144.954ZM526.265 144.954C526.265 143.853 527.157 142.959 528.257 142.959C529.356 142.959 530.249 143.853 530.249 144.954C530.249 146.055 529.356 146.948 528.257 146.948C527.157 146.948 526.265 146.055 526.265 144.954ZM516.695 144.954C516.695 143.853 517.588 142.959 518.687 142.959C519.787 142.959 520.679 143.853 520.679 144.954C520.679 146.055 519.787 146.948 518.687 146.948C517.588 146.948 516.695 146.055 516.695 144.954ZM507.126 144.954C507.126 143.853 508.018 142.959 509.118 142.959C510.217 142.959 511.11 143.853 511.11 144.954C511.11 146.055 510.217 146.948 509.118 146.948C508.018 146.948 507.126 146.055 507.126 144.954ZM497.556 144.954C497.556 143.853 498.449 142.959 499.548 142.959C500.648 142.959 501.54 143.853 501.54 144.954C501.54 146.055 500.648 146.948 499.548 146.948C498.449 146.948 497.556 146.055 497.556 144.954ZM487.987 144.954C487.987 143.853 488.879 142.959 489.979 142.959C491.078 142.959 491.971 143.853 491.971 144.954C491.971 146.055 491.078 146.948 489.979 146.948C488.879 146.948 487.987 146.055 487.987 144.954ZM478.417 144.954C478.417 143.853 479.31 142.959 480.409 142.959C481.509 142.959 482.401 143.853 482.401 144.954C482.401 146.055 481.509 146.948 480.409 146.948C479.31 146.948 478.417 146.055 478.417 144.954ZM468.848 144.954C468.848 143.853 469.74 142.959 470.848 142.959C471.94 142.959 472.832 143.853 472.832 144.954C472.832 146.055 471.94 146.948 470.848 146.948C469.74 146.948 468.848 146.055 468.848 144.954ZM459.286 144.954C459.286 143.853 460.179 142.959 461.278 142.959C462.378 142.959 463.27 143.853 463.27 144.954C463.27 146.055 462.378 146.948 461.278 146.948C460.179 146.948 459.286 146.055 459.286 144.954ZM449.717 144.954C449.717 143.853 450.609 142.959 451.709 142.959C452.809 142.959 453.701 143.853 453.701 144.954C453.701 146.055 452.809 146.948 451.709 146.948C450.609 146.948 449.717 146.055 449.717 144.954ZM440.148 144.954C440.148 143.853 441.04 142.959 442.139 142.959C443.239 142.959 444.131 143.853 444.131 144.954C444.131 146.055 443.239 146.948 442.139 146.948C441.04 146.948 440.148 146.055 440.148 144.954ZM430.578 144.954C430.578 143.853 431.471 142.959 432.57 142.959C433.67 142.959 434.562 143.853 434.562 144.954C434.562 146.055 433.67 146.948 432.57 146.948C431.471 146.948 430.578 146.055 430.578 144.954ZM421.009 144.954C421.009 143.853 421.901 142.959 423.001 142.959C424.1 142.959 424.993 143.853 424.993 144.954C424.993 146.055 424.1 146.948 423.001 146.948C421.901 146.948 421.009 146.055 421.009 144.954ZM411.439 144.954C411.439 143.853 412.332 142.959 413.431 142.959C414.531 142.959 415.423 143.853 415.423 144.954C415.423 146.055 414.531 146.948 413.431 146.948C412.332 146.948 411.439 146.055 411.439 144.954ZM401.87 144.954C401.87 143.853 402.762 142.959 403.862 142.959C404.961 142.959 405.854 143.853 405.854 144.954C405.854 146.055 404.961 146.948 403.862 146.948C402.762 146.948 401.87 146.055 401.87 144.954ZM392.3 144.954C392.3 143.853 393.193 142.959 394.3 142.959C395.4 142.959 396.292 143.853 396.292 144.954C396.292 146.055 395.4 146.948 394.3 146.948C393.193 146.948 392.3 146.055 392.3 144.954ZM382.739 144.954C382.739 143.853 383.631 142.959 384.731 142.959C385.83 142.959 386.723 143.853 386.723 144.954C386.723 146.055 385.83 146.948 384.731 146.948C383.631 146.948 382.739 146.055 382.739 144.954ZM373.169 144.954C373.169 143.853 374.062 142.959 375.161 142.959C376.261 142.959 377.153 143.853 377.153 144.954C377.153 146.055 376.261 146.948 375.161 146.948C374.062 146.948 373.169 146.055 373.169 144.954ZM363.6 144.954C363.6 143.853 364.492 142.959 365.592 142.959C366.691 142.959 367.584 143.853 367.584 144.954C367.584 146.055 366.691 146.948 365.592 146.948C364.492 146.948 363.6 146.055 363.6 144.954ZM354.03 144.954C354.03 143.853 354.923 142.959 356.022 142.959C357.122 142.959 358.014 143.853 358.014 144.954C358.014 146.055 357.122 146.948 356.022 146.948C354.923 146.948 354.03 146.055 354.03 144.954ZM344.461 144.954C344.461 143.853 345.353 142.959 346.453 142.959C347.552 142.959 348.445 143.853 348.445 144.954C348.445 146.055 347.552 146.948 346.453 146.948C345.353 146.948 344.461 146.055 344.461 144.954ZM334.891 144.954C334.891 143.853 335.784 142.959 336.883 142.959C337.983 142.959 338.875 143.853 338.875 144.954C338.875 146.055 337.983 146.948 336.883 146.948C335.784 146.948 334.891 146.055 334.891 144.954ZM325.322 144.954C325.322 143.853 326.214 142.959 327.314 142.959C328.413 142.959 329.306 143.853 329.306 144.954C329.306 146.055 328.413 146.948 327.314 146.948C326.214 146.948 325.322 146.055 325.322 144.954ZM315.752 144.954C315.752 143.853 316.645 142.959 317.752 142.959C318.844 142.959 319.744 143.853 319.744 144.954C319.744 146.055 318.844 146.948 317.752 146.948C316.645 146.948 315.752 146.055 315.752 144.954ZM306.191 144.954C306.191 143.853 307.075 142.959 308.183 142.959C309.283 142.959 310.175 143.853 310.175 144.954C310.175 146.055 309.283 146.948 308.183 146.948C307.075 146.948 306.191 146.055 306.191 144.954ZM296.622 144.954C296.622 143.853 297.514 142.959 298.613 142.959C299.713 142.959 300.605 143.853 300.605 144.954C300.605 146.055 299.713 146.948 298.613 146.948C297.514 146.948 296.622 146.055 296.622 144.954ZM287.052 144.954C287.052 143.853 287.944 142.959 289.044 142.959C290.144 142.959 291.036 143.853 291.036 144.954C291.036 146.055 290.144 146.948 289.044 146.948C287.944 146.948 287.052 146.055 287.052 144.954ZM277.483 144.954C277.483 143.853 278.375 142.959 279.475 142.959C280.574 142.959 281.467 143.853 281.467 144.954C281.467 146.055 280.574 146.948 279.475 146.948C278.375 146.948 277.483 146.055 277.483 144.954ZM267.913 144.954C267.913 143.853 268.806 142.959 269.905 142.959C271.005 142.959 271.897 143.853 271.897 144.954C271.897 146.055 271.005 146.948 269.905 146.948C268.806 146.948 267.913 146.055 267.913 144.954ZM258.344 144.954C258.344 143.853 259.236 142.959 260.336 142.959C261.435 142.959 262.328 143.853 262.328 144.954C262.328 146.055 261.435 146.948 260.336 146.948C259.236 146.948 258.344 146.055 258.344 144.954ZM248.774 144.954C248.774 143.853 249.667 142.959 250.766 142.959C251.874 142.959 252.758 143.853 252.758 144.954C252.758 146.055 251.874 146.948 250.766 146.948C249.667 146.948 248.774 146.055 248.774 144.954ZM239.213 144.954C239.213 143.853 240.097 142.959 241.205 142.959C242.304 142.959 243.197 143.853 243.197 144.954C243.197 146.055 242.304 146.948 241.205 146.948C240.097 146.948 239.213 146.055 239.213 144.954ZM229.643 144.954C229.643 143.853 230.536 142.959 231.635 142.959C232.735 142.959 233.627 143.853 233.627 144.954C233.627 146.055 232.735 146.948 231.635 146.948C230.536 146.948 229.643 146.055 229.643 144.954ZM220.074 144.954C220.074 143.853 220.966 142.959 222.066 142.959C223.165 142.959 224.058 143.853 224.058 144.954C224.058 146.055 223.165 146.948 222.066 146.948C220.966 146.948 220.074 146.055 220.074 144.954ZM210.504 144.954C210.504 143.853 211.397 142.959 212.496 142.959C213.596 142.959 214.488 143.853 214.488 144.954C214.488 146.055 213.596 146.948 212.496 146.948C211.397 146.948 210.504 146.055 210.504 144.954ZM200.935 144.954C200.935 143.853 201.827 142.959 202.927 142.959C204.026 142.959 204.919 143.853 204.919 144.954C204.919 146.055 204.026 146.948 202.927 146.948C201.827 146.948 200.935 146.055 200.935 144.954ZM191.365 144.954C191.365 143.853 192.258 142.959 193.357 142.959C194.457 142.959 195.349 143.853 195.349 144.954C195.349 146.055 194.457 146.948 193.357 146.948C192.258 146.948 191.365 146.055 191.365 144.954ZM181.796 144.954C181.796 143.853 182.688 142.959 183.788 142.959C184.887 142.959 185.78 143.853 185.78 144.954C185.78 146.055 184.887 146.948 183.788 146.948C182.688 146.948 181.796 146.055 181.796 144.954ZM172.226 144.954C172.226 143.853 173.119 142.959 174.218 142.959C175.318 142.959 176.21 143.853 176.21 144.954C176.21 146.055 175.318 146.948 174.218 146.948C173.119 146.948 172.226 146.055 172.226 144.954ZM162.665 144.954C162.665 143.853 163.549 142.959 164.649 142.959C165.757 142.959 166.649 143.853 166.649 144.954C166.649 146.055 165.757 146.948 164.649 146.948C163.549 146.948 162.665 146.055 162.665 144.954ZM153.095 144.954C153.095 143.853 153.988 142.959 155.087 142.959C156.187 142.959 157.079 143.853 157.079 144.954C157.079 146.055 156.187 146.948 155.087 146.948C153.988 146.948 153.095 146.055 153.095 144.954ZM143.526 144.954C143.526 143.853 144.418 142.959 145.518 142.959C146.618 142.959 147.51 143.853 147.51 144.954C147.51 146.055 146.618 146.948 145.518 146.948C144.418 146.948 143.526 146.055 143.526 144.954ZM133.957 144.954C133.957 143.853 134.849 142.959 135.949 142.959C137.048 142.959 137.941 143.853 137.941 144.954C137.941 146.055 137.048 146.948 135.949 146.948C134.849 146.948 133.957 146.055 133.957 144.954ZM124.387 144.954C124.387 143.853 125.279 142.959 126.379 142.959C127.479 142.959 128.371 143.853 128.371 144.954C128.371 146.055 127.479 146.948 126.379 146.948C125.279 146.948 124.387 146.055 124.387 144.954ZM114.818 144.954C114.818 143.853 115.71 142.959 116.81 142.959C117.909 142.959 118.802 143.853 118.802 144.954C118.802 146.055 117.909 146.948 116.81 146.948C115.71 146.948 114.818 146.055 114.818 144.954ZM105.248 144.954C105.248 143.853 106.141 142.959 107.24 142.959C108.34 142.959 109.232 143.853 109.232 144.954C109.232 146.055 108.34 146.948 107.24 146.948C106.141 146.948 105.248 146.055 105.248 144.954ZM95.6787 144.954C95.6787 143.853 96.5711 142.959 97.6707 142.959C98.7703 142.959 99.6627 143.853 99.6627 144.954C99.6627 146.055 98.7703 146.948 97.6707 146.948C96.5711 146.948 95.6787 146.055 95.6787 144.954ZM86.1172 144.954C86.1172 143.853 87.0016 142.959 88.1012 142.959C89.2088 142.959 90.0932 143.853 90.0932 144.954C90.0932 146.055 89.2088 146.948 88.1012 146.948C87.0016 146.948 86.1172 146.055 86.1172 144.954ZM76.5477 144.954C76.5477 143.853 77.4322 142.959 78.5318 142.959C79.6393 142.959 80.5317 143.853 80.5317 144.954C80.5317 146.055 79.6393 146.948 78.5318 146.948C77.4322 146.948 76.5477 146.055 76.5477 144.954ZM66.9783 144.954C66.9783 143.853 67.8707 142.959 68.9703 142.959C70.0698 142.959 70.9622 143.853 70.9622 144.954C70.9622 146.055 70.0698 146.948 68.9703 146.948C67.8707 146.948 66.9783 146.055 66.9783 144.954ZM57.4088 144.954C57.4088 143.853 58.3012 142.959 59.4008 142.959C60.5004 142.959 61.3928 143.853 61.3928 144.954C61.3928 146.055 60.5004 146.948 59.4008 146.948C58.3012 146.948 57.4088 146.055 57.4088 144.954ZM47.8394 144.954C47.8394 143.853 48.7318 142.959 49.8313 142.959C50.9309 142.959 51.8233 143.853 51.8233 144.954C51.8233 146.055 50.9309 146.948 49.8313 146.948C48.7318 146.948 47.8394 146.055 47.8394 144.954ZM38.2699 144.954C38.2699 143.853 39.1623 142.959 40.2619 142.959C41.3614 142.959 42.2538 143.853 42.2538 144.954C42.2538 146.055 41.3614 146.948 40.2619 146.948C39.1623 146.948 38.2699 146.055 38.2699 144.954ZM28.7004 144.954C28.7004 143.853 29.5928 142.959 30.6924 142.959C31.792 142.959 32.6844 143.853 32.6844 144.954C32.6844 146.055 31.792 146.948 30.6924 146.948C29.5928 146.948 28.7004 146.055 28.7004 144.954ZM19.131 144.954C19.131 143.853 20.0234 142.959 21.1229 142.959C22.2225 142.959 23.1149 143.853 23.1149 144.954C23.1149 146.055 22.2225 146.948 21.1229 146.948C20.0234 146.948 19.131 146.055 19.131 144.954ZM9.5615 144.954C9.5615 143.853 10.4539 142.959 11.5535 142.959C12.661 142.959 13.5455 143.853 13.5455 144.954C13.5455 146.055 12.661 146.948 11.5535 146.948C10.4539 146.948 9.5615 146.055 9.5615 144.954ZM0 144.954C0 143.853 0.892406 142.959 1.99198 142.959C3.09155 142.959 3.98396 143.853 3.98396 144.954C3.98396 146.055 3.09155 146.948 1.99198 146.948C0.892406 146.948 0 146.055 0 144.954ZM593.243 144.914C593.163 143.813 593.984 142.855 595.084 142.784C596.183 142.696 597.131 143.526 597.211 144.627C597.291 145.72 596.47 146.677 595.37 146.757C595.323 146.757 595.275 146.757 595.227 146.757C594.191 146.757 593.315 145.951 593.243 144.906V144.914ZM602.741 143.853C602.518 142.776 603.211 141.723 604.287 141.499C605.362 141.276 606.422 141.962 606.645 143.047C606.868 144.124 606.175 145.177 605.099 145.4C604.964 145.432 604.828 145.44 604.693 145.44C603.769 145.44 602.94 144.794 602.741 143.853ZM612.031 141.539C611.665 140.502 612.207 139.361 613.243 138.994C614.278 138.627 615.418 139.17 615.784 140.207C616.151 141.244 615.609 142.385 614.573 142.752C614.35 142.832 614.127 142.871 613.904 142.871C613.083 142.871 612.318 142.353 612.031 141.539ZM620.916 137.997C620.414 137.016 620.804 135.811 621.784 135.308C622.764 134.806 623.959 135.197 624.461 136.178C624.963 137.151 624.581 138.356 623.601 138.859C623.306 139.01 622.995 139.082 622.692 139.082C621.967 139.082 621.274 138.683 620.916 137.997ZM629.25 133.298C628.629 132.388 628.852 131.144 629.752 130.522C630.652 129.891 631.895 130.115 632.525 131.016C633.154 131.926 632.931 133.17 632.023 133.793C631.68 134.04 631.282 134.152 630.891 134.152C630.262 134.152 629.64 133.856 629.25 133.298ZM636.891 127.53C636.15 126.716 636.206 125.456 637.019 124.714C637.831 123.972 639.09 124.028 639.831 124.841C640.572 125.655 640.517 126.916 639.704 127.658C639.321 128.009 638.843 128.176 638.357 128.176C637.823 128.176 637.282 127.961 636.891 127.53ZM643.696 120.805C642.851 120.095 642.74 118.834 643.449 117.996C644.158 117.151 645.417 117.039 646.254 117.749C647.098 118.451 647.21 119.712 646.501 120.557C646.11 121.028 645.544 121.267 644.979 121.267C644.525 121.267 644.07 121.116 643.696 120.805ZM649.552 113.241C648.62 112.651 648.349 111.415 648.939 110.489C649.528 109.556 650.755 109.276 651.688 109.867C652.612 110.457 652.891 111.694 652.301 112.619C651.919 113.218 651.273 113.545 650.62 113.545C650.253 113.545 649.879 113.449 649.552 113.241ZM654.357 104.96C653.353 104.506 652.915 103.317 653.377 102.32C653.839 101.315 655.018 100.884 656.022 101.338C657.018 101.801 657.456 102.982 656.994 103.987C656.66 104.713 655.935 105.144 655.186 105.144C654.907 105.144 654.62 105.088 654.357 104.96ZM658.006 96.1129C656.954 95.7938 656.365 94.6769 656.684 93.6238C657.01 92.5708 658.126 91.9804 659.177 92.2995C660.229 92.6266 660.819 93.7435 660.5 94.7966C660.237 95.6502 659.448 96.2007 658.596 96.2007C658.397 96.2007 658.205 96.1768 658.006 96.1129ZM660.444 86.8586C659.361 86.6831 658.628 85.6539 658.803 84.5689C658.986 83.4839 660.006 82.742 661.098 82.9255C662.181 83.101 662.914 84.1301 662.739 85.2151C662.58 86.1884 661.735 86.8825 660.771 86.8825C660.668 86.8825 660.556 86.8825 660.444 86.8586ZM661.632 77.3569C660.532 77.325 659.664 76.4075 659.703 75.3066C659.735 74.2056 660.652 73.336 661.751 73.3679C662.851 73.4078 663.719 74.3253 663.679 75.4262C663.648 76.5033 662.763 77.3569 661.695 77.3569H661.632ZM659.369 66.0043C659.257 64.9034 660.054 63.9301 661.154 63.8184C662.245 63.7067 663.225 64.5045 663.337 65.5975C663.448 66.6984 662.652 67.6717 661.552 67.7834C661.488 67.7914 661.417 67.7994 661.353 67.7994C660.341 67.7994 659.48 67.0335 659.369 66.0043ZM657.815 56.8298C657.56 55.7607 658.221 54.6837 659.289 54.4284C660.357 54.1651 661.432 54.8273 661.687 55.9043C661.942 56.9734 661.289 58.0504 660.221 58.3057C660.062 58.3456 659.903 58.3615 659.751 58.3615C658.851 58.3615 658.038 57.7472 657.815 56.8298ZM655.05 47.9424C654.652 46.9132 655.162 45.7564 656.19 45.3655C657.209 44.9666 658.365 45.4772 658.763 46.4984C659.162 47.5275 658.652 48.6843 657.624 49.0832C657.393 49.171 657.146 49.2188 656.907 49.2188C656.11 49.2188 655.353 48.7322 655.05 47.9424ZM651.114 39.5097C650.588 38.5444 650.939 37.3318 651.895 36.7972C652.859 36.2707 654.07 36.6217 654.604 37.5791C655.138 38.5444 654.787 39.757 653.823 40.2916C653.512 40.4591 653.186 40.5389 652.859 40.5389C652.158 40.5389 651.481 40.1639 651.114 39.5097ZM646.094 31.6754C645.441 30.7899 645.624 29.5374 646.509 28.8832C647.393 28.229 648.644 28.4125 649.297 29.298C649.951 30.1836 649.767 31.4361 648.883 32.0903C648.524 32.3536 648.11 32.4812 647.696 32.4812C647.09 32.4812 646.485 32.202 646.094 31.6754ZM640.078 24.5751C639.314 23.7853 639.337 22.5248 640.126 21.7589C640.915 20.9851 642.174 21.009 642.947 21.7988C643.712 22.5886 643.696 23.8491 642.907 24.615C642.517 24.9979 642.023 25.1814 641.521 25.1814C641.003 25.1814 640.477 24.982 640.086 24.5751H640.078ZM633.186 18.3364C632.326 17.6503 632.174 16.3978 632.859 15.5361C633.537 14.6745 634.788 14.5229 635.656 15.209C636.517 15.8872 636.66 17.1397 635.983 18.0093C635.593 18.5039 635.011 18.7672 634.421 18.7672C633.983 18.7672 633.553 18.6236 633.186 18.3364ZM625.529 13.071C624.581 12.5045 624.27 11.2839 624.828 10.3345C625.394 9.38518 626.613 9.07405 627.561 9.64048C628.509 10.1989 628.82 11.4275 628.254 12.3689C627.888 12.9992 627.218 13.3502 626.541 13.3502C626.198 13.3502 625.848 13.2545 625.529 13.071ZM617.242 8.86662C616.23 8.43581 615.752 7.27103 616.183 6.25784C616.613 5.24465 617.784 4.76598 618.796 5.19679C619.808 5.6276 620.286 6.80035 619.856 7.81354C619.529 8.57144 618.796 9.02617 618.015 9.02617C617.76 9.02617 617.497 8.97831 617.242 8.86662ZM608.462 5.81907C607.402 5.52388 606.781 4.43091 607.067 3.36985C607.362 2.30081 608.454 1.67853 609.513 1.97371C610.573 2.26092 611.203 3.36187 610.908 4.42293C610.669 5.30848 609.864 5.89086 608.988 5.89086C608.82 5.89086 608.637 5.86693 608.462 5.81907ZM599.354 3.96819H599.362C598.271 3.82459 597.498 2.81937 597.649 1.7264C597.793 0.633427 598.797 -0.132451 599.888 0.0191296C600.98 0.162732 601.745 1.16795 601.593 2.25294C601.466 3.25816 600.605 3.98415 599.625 3.98415C599.538 3.98415 599.45 3.98414 599.354 3.96819Z" fill="#600F41"/>
</svg>
