<svg width="736" height="147" viewBox="0 0 736 147" fill="none" xmlns="http://www.w3.org/2000/svg">
<path d="M63.935 146.953C62.8434 146.809 62.0785 145.804 62.2219 144.711C62.3653 143.618 63.3693 142.852 64.4609 142.996C65.5445 143.139 66.3174 144.145 66.174 145.238C66.0386 146.243 65.178 146.969 64.198 146.969C64.1103 146.969 64.0227 146.961 63.935 146.953ZM54.3576 145.03C53.2899 144.743 52.6604 143.642 52.9552 142.581C53.2421 141.52 54.3337 140.89 55.3934 141.177C56.4611 141.464 57.0826 142.557 56.7958 143.626C56.5567 144.512 55.752 145.094 54.8755 145.094C54.7002 145.094 54.5249 145.07 54.3576 145.03ZM45.1068 141.839C44.0949 141.408 43.6168 140.244 44.0471 139.23C44.4694 138.209 45.6407 137.738 46.6526 138.161C47.6645 138.592 48.1426 139.757 47.7203 140.778C47.3936 141.536 46.6606 141.999 45.8797 141.999C45.6248 141.999 45.3618 141.943 45.1068 141.839ZM36.366 137.451C35.4179 136.885 35.0991 135.664 35.6649 134.715C36.2226 133.765 37.4417 133.446 38.3899 134.005C39.3381 134.563 39.6568 135.792 39.099 136.741C38.7245 137.371 38.0552 137.723 37.378 137.723C37.0353 137.723 36.6848 137.635 36.366 137.451ZM28.2945 131.939C27.426 131.26 27.2746 130.008 27.9519 129.138C28.6292 128.269 29.8802 128.117 30.7487 128.795C31.6172 129.473 31.7686 130.726 31.0833 131.595C30.6929 132.098 30.1112 132.361 29.5216 132.361C29.0913 132.361 28.6531 132.226 28.2945 131.939ZM21.0119 125.413C20.239 124.623 20.2549 123.362 21.0437 122.588C21.8246 121.823 23.0915 121.831 23.8564 122.62C24.6293 123.41 24.6134 124.671 23.8325 125.445C23.4421 125.819 22.9401 126.011 22.4381 126.011C21.9202 126.011 21.4023 125.811 21.0119 125.413ZM14.6535 117.985C13.9921 117.1 14.1754 115.855 15.0519 115.193C15.9363 114.531 17.1793 114.714 17.8406 115.592C18.502 116.477 18.3187 117.722 17.4422 118.384C17.0837 118.655 16.6614 118.783 16.2471 118.783C15.6415 118.783 15.0439 118.504 14.6535 117.985ZM9.3309 109.784C8.78909 108.827 9.13171 107.606 10.0958 107.071C11.052 106.529 12.2711 106.872 12.8049 107.837C13.3388 108.795 12.9961 110.015 12.04 110.55C11.7292 110.725 11.3946 110.805 11.0679 110.805C10.3747 110.805 9.68946 110.438 9.3309 109.784ZM5.13181 100.952C4.73342 99.9312 5.2354 98.7664 6.25529 98.3675C7.27518 97.9606 8.43053 98.4632 8.83689 99.4844C9.24326 100.506 8.74128 101.662 7.72139 102.069C7.48235 102.165 7.23534 102.213 6.98834 102.213C6.19951 102.213 5.44256 101.734 5.13181 100.952ZM2.15181 91.6342C1.88887 90.5651 2.53427 89.4801 3.60994 89.2169C4.66968 88.9536 5.75331 89.5998 6.01625 90.6688C6.28716 91.7379 5.63379 92.8229 4.56609 93.0861C4.40673 93.126 4.23941 93.15 4.08005 93.15C3.18764 93.15 2.37492 92.5436 2.15181 91.6342ZM0.438713 82.0048C0.311226 80.9039 1.10005 79.9226 2.19962 79.8029C3.29123 79.6753 4.27128 80.4651 4.39877 81.5581C4.51828 82.659 3.72946 83.6403 2.62989 83.768C2.55818 83.7759 2.48647 83.7759 2.41476 83.7759C1.4108 83.7759 0.550264 83.018 0.438713 82.0048ZM1.95262 74.2663C0.853044 74.2423 -0.0234262 73.3329 0.000477556 72.2319C0.0243813 71.131 0.932724 70.2534 2.0323 70.2773C3.13187 70.3013 4.00834 71.2107 3.98443 72.3117C3.96053 73.3967 3.07609 74.2663 1.99246 74.2663H1.95262ZM2.51037 64.7566C1.42673 64.5891 0.67775 63.5759 0.845077 62.4829C1.0124 61.3979 2.0323 60.648 3.11593 60.8155C4.20754 60.9831 4.94855 62.0042 4.78123 63.0892C4.62984 64.0785 3.78524 64.7805 2.82112 64.7805C2.71754 64.7805 2.61395 64.7805 2.51037 64.7566ZM4.31909 55.4145C3.26732 55.1034 2.66176 53.9944 2.97251 52.9334C3.28326 51.8803 4.3908 51.274 5.44256 51.5851C6.5023 51.8962 7.10786 53.0052 6.79711 54.0583C6.54214 54.9278 5.74534 55.4943 4.88481 55.4943C4.70155 55.4943 4.51032 55.4703 4.31909 55.4145ZM7.36283 46.3835C6.35887 45.9288 5.9047 44.756 6.3509 43.7508C6.79711 42.7376 7.97636 42.2909 8.98032 42.7376C9.99224 43.1844 10.4384 44.3651 9.99224 45.3703C9.65759 46.1123 8.93251 46.551 8.16759 46.551C7.89668 46.551 7.62577 46.4952 7.36283 46.3835ZM11.5699 37.8392C10.6376 37.2568 10.3428 36.0282 10.9245 35.0948C11.4982 34.1534 12.7252 33.8662 13.6655 34.4406C14.5977 35.023 14.8925 36.2516 14.3109 37.185C13.9364 37.7993 13.283 38.1344 12.6137 38.1344C12.2631 38.1344 11.8966 38.0386 11.5699 37.8392ZM16.8765 29.9331C16.024 29.231 15.8965 27.9785 16.5976 27.1249C17.2909 26.2712 18.5498 26.1436 19.3944 26.8456C20.2469 27.5397 20.3744 28.8002 19.6812 29.6459C19.2828 30.1325 18.7171 30.3798 18.1355 30.3798C17.6892 30.3798 17.243 30.2362 16.8765 29.9331ZM23.1712 22.7929C22.4222 21.9951 22.462 20.7266 23.2668 19.9767C24.0636 19.2188 25.3225 19.2587 26.0795 20.0644C26.8364 20.8702 26.7886 22.1307 25.9918 22.8806C25.6094 23.2476 25.1153 23.4231 24.6293 23.4231C24.0954 23.4231 23.5696 23.2157 23.1712 22.7929ZM30.3503 16.5462C29.7128 15.6526 29.92 14.4081 30.8124 13.7699C31.7048 13.1236 32.9558 13.3311 33.5932 14.2246C34.2306 15.1261 34.0235 16.3707 33.1311 17.0089C32.7805 17.2642 32.3741 17.3838 31.9757 17.3838C31.3542 17.3838 30.7407 17.0966 30.3503 16.5462ZM38.2863 11.3047C37.7764 10.3314 38.1429 9.12672 39.115 8.60815C40.0871 8.08959 41.2902 8.46455 41.8081 9.43786C42.326 10.4032 41.9515 11.6158 40.9795 12.1344C40.6846 12.2939 40.3659 12.3657 40.0472 12.3657C39.3381 12.3657 38.6449 11.9828 38.2863 11.3047ZM46.8518 7.16415C46.4694 6.12703 46.9952 4.97821 48.0231 4.59527C49.0589 4.21233 50.2063 4.73887 50.5888 5.776C50.9712 6.80515 50.4453 7.95397 49.4175 8.33691C49.1864 8.42466 48.9553 8.46455 48.7243 8.46455C47.9115 8.46455 47.1466 7.96992 46.8518 7.16415ZM55.8874 4.19638C55.6484 3.11936 56.3177 2.05032 57.3934 1.81098C58.469 1.57165 59.5367 2.24179 59.7758 3.31881C60.0148 4.39582 59.3455 5.45688 58.2698 5.7042C58.1264 5.73611 57.975 5.75207 57.8316 5.75207C56.9233 5.75207 56.1026 5.12181 55.8874 4.19638ZM65.2418 2.46517C65.1461 1.36422 65.9509 0.398895 67.0505 0.295182C68.1421 0.199448 69.1142 1.00522 69.2098 2.10617C69.3054 3.20712 68.5006 4.17244 67.4011 4.26818C67.3453 4.27615 67.2815 4.27615 67.2258 4.27615C66.2059 4.27615 65.3374 3.49432 65.2418 2.46517ZM731.415 1.99448C731.415 0.893525 732.308 0 733.407 0C734.507 0 735.399 0.893525 735.399 1.99448C735.399 3.09543 734.507 3.98895 733.407 3.98895C732.308 3.98895 731.415 3.09543 731.415 1.99448ZM721.894 1.99448C721.894 0.893525 722.786 0 723.885 0C724.985 0 725.878 0.893525 725.878 1.99448C725.878 3.09543 724.985 3.98895 723.885 3.98895C722.786 3.98895 721.894 3.09543 721.894 1.99448ZM712.38 1.99448C712.38 0.893525 713.272 0 714.372 0C715.471 0 716.364 0.893525 716.364 1.99448C716.364 3.09543 715.471 3.98895 714.372 3.98895C713.272 3.98895 712.38 3.09543 712.38 1.99448ZM702.866 1.99448C702.866 0.893525 703.751 0 704.85 0C705.958 0 706.85 0.893525 706.85 1.99448C706.85 3.09543 705.958 3.98895 704.85 3.98895C703.751 3.98895 702.866 3.09543 702.866 1.99448ZM693.344 1.99448C693.344 0.893525 694.237 0 695.336 0C696.436 0 697.328 0.893525 697.328 1.99448C697.328 3.09543 696.436 3.98895 695.336 3.98895C694.237 3.98895 693.344 3.09543 693.344 1.99448ZM683.831 1.99448C683.831 0.893525 684.723 0 685.823 0C686.922 0 687.815 0.893525 687.815 1.99448C687.815 3.09543 686.922 3.98895 685.823 3.98895C684.723 3.98895 683.831 3.09543 683.831 1.99448ZM674.309 1.99448C674.309 0.893525 675.202 0 676.301 0C677.401 0 678.293 0.893525 678.293 1.99448C678.293 3.09543 677.401 3.98895 676.301 3.98895C675.202 3.98895 674.309 3.09543 674.309 1.99448ZM664.795 1.99448C664.795 0.893525 665.688 0 666.787 0C667.887 0 668.779 0.893525 668.779 1.99448C668.779 3.09543 667.887 3.98895 666.787 3.98895C665.688 3.98895 664.795 3.09543 664.795 1.99448ZM655.274 1.99448C655.274 0.893525 656.166 0 657.266 0C658.365 0 659.258 0.893525 659.258 1.99448C659.258 3.09543 658.365 3.98895 657.266 3.98895C656.166 3.98895 655.274 3.09543 655.274 1.99448ZM645.76 1.99448C645.76 0.893525 646.652 0 647.752 0C648.852 0 649.744 0.893525 649.744 1.99448C649.744 3.09543 648.852 3.98895 647.752 3.98895C646.652 3.98895 645.76 3.09543 645.76 1.99448ZM636.246 1.99448C636.246 0.893525 637.131 0 638.23 0C639.338 0 640.23 0.893525 640.23 1.99448C640.23 3.09543 639.338 3.98895 638.23 3.98895C637.131 3.98895 636.246 3.09543 636.246 1.99448ZM626.725 1.99448C626.725 0.893525 627.617 0 628.717 0C629.816 0 630.709 0.893525 630.709 1.99448C630.709 3.09543 629.816 3.98895 628.717 3.98895C627.617 3.98895 626.725 3.09543 626.725 1.99448ZM617.211 1.99448C617.211 0.893525 618.103 0 619.203 0C620.303 0 621.195 0.893525 621.195 1.99448C621.195 3.09543 620.303 3.98895 619.203 3.98895C618.103 3.98895 617.211 3.09543 617.211 1.99448ZM607.689 1.99448C607.689 0.893525 608.582 0 609.681 0C610.781 0 611.673 0.893525 611.673 1.99448C611.673 3.09543 610.781 3.98895 609.681 3.98895C608.582 3.98895 607.689 3.09543 607.689 1.99448ZM598.176 1.99448C598.176 0.893525 599.068 0 600.168 0C601.267 0 602.16 0.893525 602.16 1.99448C602.16 3.09543 601.267 3.98895 600.168 3.98895C599.068 3.98895 598.176 3.09543 598.176 1.99448ZM588.662 1.99448C588.662 0.893525 589.546 0 590.646 0C591.754 0 592.638 0.893525 592.638 1.99448C592.638 3.09543 591.754 3.98895 590.646 3.98895C589.546 3.98895 588.662 3.09543 588.662 1.99448ZM579.14 1.99448C579.14 0.893525 580.033 0 581.132 0C582.232 0 583.124 0.893525 583.124 1.99448C583.124 3.09543 582.232 3.98895 581.132 3.98895C580.033 3.98895 579.14 3.09543 579.14 1.99448ZM569.627 1.99448C569.627 0.893525 570.519 0 571.619 0C572.718 0 573.611 0.893525 573.611 1.99448C573.611 3.09543 572.718 3.98895 571.619 3.98895C570.519 3.98895 569.627 3.09543 569.627 1.99448ZM560.105 1.99448C560.105 0.893525 560.997 0 562.097 0C563.197 0 564.089 0.893525 564.089 1.99448C564.089 3.09543 563.197 3.98895 562.097 3.98895C560.997 3.98895 560.105 3.09543 560.105 1.99448ZM550.591 1.99448C550.591 0.893525 551.484 0 552.583 0C553.683 0 554.575 0.893525 554.575 1.99448C554.575 3.09543 553.683 3.98895 552.583 3.98895C551.484 3.98895 550.591 3.09543 550.591 1.99448ZM541.07 1.99448C541.07 0.893525 541.962 0 543.062 0C544.161 0 545.054 0.893525 545.054 1.99448C545.054 3.09543 544.161 3.98895 543.062 3.98895C541.962 3.98895 541.07 3.09543 541.07 1.99448ZM531.556 1.99448C531.556 0.893525 532.448 0 533.548 0C534.648 0 535.54 0.893525 535.54 1.99448C535.54 3.09543 534.648 3.98895 533.548 3.98895C532.448 3.98895 531.556 3.09543 531.556 1.99448ZM522.034 1.99448C522.034 0.893525 522.927 0 524.034 0C525.134 0 526.018 0.893525 526.018 1.99448C526.018 3.09543 525.134 3.98895 524.034 3.98895C522.927 3.98895 522.034 3.09543 522.034 1.99448ZM512.521 1.99448C512.521 0.893525 513.413 0 514.513 0C515.612 0 516.505 0.893525 516.505 1.99448C516.505 3.09543 515.612 3.98895 514.513 3.98895C513.413 3.98895 512.521 3.09543 512.521 1.99448ZM503.007 1.99448C503.007 0.893525 503.899 0 504.999 0C506.098 0 506.991 0.893525 506.991 1.99448C506.991 3.09543 506.098 3.98895 504.999 3.98895C503.899 3.98895 503.007 3.09543 503.007 1.99448ZM493.485 1.99448C493.485 0.893525 494.378 0 495.477 0C496.577 0 497.469 0.893525 497.469 1.99448C497.469 3.09543 496.577 3.98895 495.477 3.98895C494.378 3.98895 493.485 3.09543 493.485 1.99448ZM483.972 1.99448C483.972 0.893525 484.864 0 485.964 0C487.063 0 487.956 0.893525 487.956 1.99448C487.956 3.09543 487.063 3.98895 485.964 3.98895C484.864 3.98895 483.972 3.09543 483.972 1.99448ZM474.45 1.99448C474.45 0.893525 475.342 0 476.45 0C477.541 0 478.434 0.893525 478.434 1.99448C478.434 3.09543 477.541 3.98895 476.45 3.98895C475.342 3.98895 474.45 3.09543 474.45 1.99448ZM464.936 1.99448C464.936 0.893525 465.829 0 466.928 0C468.028 0 468.92 0.893525 468.92 1.99448C468.92 3.09543 468.028 3.98895 466.928 3.98895C465.829 3.98895 464.936 3.09543 464.936 1.99448ZM455.423 1.99448C455.423 0.893525 456.315 0 457.415 0C458.514 0 459.407 0.893525 459.407 1.99448C459.407 3.09543 458.514 3.98895 457.415 3.98895C456.315 3.98895 455.423 3.09543 455.423 1.99448ZM445.901 1.99448C445.901 0.893525 446.793 0 447.893 0C448.992 0 449.885 0.893525 449.885 1.99448C449.885 3.09543 448.992 3.98895 447.893 3.98895C446.793 3.98895 445.901 3.09543 445.901 1.99448ZM436.387 1.99448C436.387 0.893525 437.28 0 438.379 0C439.479 0 440.371 0.893525 440.371 1.99448C440.371 3.09543 439.479 3.98895 438.379 3.98895C437.28 3.98895 436.387 3.09543 436.387 1.99448ZM426.866 1.99448C426.866 0.893525 427.758 0 428.858 0C429.957 0 430.85 0.893525 430.85 1.99448C430.85 3.09543 429.957 3.98895 428.858 3.98895C427.758 3.98895 426.866 3.09543 426.866 1.99448ZM417.352 1.99448C417.352 0.893525 418.244 0 419.344 0C420.443 0 421.336 0.893525 421.336 1.99448C421.336 3.09543 420.443 3.98895 419.344 3.98895C418.244 3.98895 417.352 3.09543 417.352 1.99448ZM407.838 1.99448C407.838 0.893525 408.731 0 409.83 0C410.93 0 411.822 0.893525 411.822 1.99448C411.822 3.09543 410.93 3.98895 409.83 3.98895C408.731 3.98895 407.838 3.09543 407.838 1.99448ZM398.317 1.99448C398.317 0.893525 399.209 0 400.309 0C401.408 0 402.3 0.893525 402.3 1.99448C402.3 3.09543 401.408 3.98895 400.309 3.98895C399.209 3.98895 398.317 3.09543 398.317 1.99448ZM388.803 1.99448C388.803 0.893525 389.695 0 390.795 0C391.894 0 392.787 0.893525 392.787 1.99448C392.787 3.09543 391.894 3.98895 390.795 3.98895C389.695 3.98895 388.803 3.09543 388.803 1.99448ZM379.281 1.99448C379.281 0.893525 380.174 0 381.273 0C382.373 0 383.265 0.893525 383.265 1.99448C383.265 3.09543 382.373 3.98895 381.273 3.98895C380.174 3.98895 379.281 3.09543 379.281 1.99448ZM369.767 1.99448C369.767 0.893525 370.66 0 371.759 0C372.859 0 373.751 0.893525 373.751 1.99448C373.751 3.09543 372.859 3.98895 371.759 3.98895C370.66 3.98895 369.767 3.09543 369.767 1.99448ZM360.246 1.99448C360.246 0.893525 361.138 0 362.246 0C363.345 0 364.238 0.893525 364.238 1.99448C364.238 3.09543 363.345 3.98895 362.246 3.98895C361.138 3.98895 360.246 3.09543 360.246 1.99448ZM350.732 1.99448C350.732 0.893525 351.625 0 352.724 0C353.824 0 354.716 0.893525 354.716 1.99448C354.716 3.09543 353.824 3.98895 352.724 3.98895C351.625 3.98895 350.732 3.09543 350.732 1.99448ZM341.218 1.99448C341.218 0.893525 342.111 0 343.21 0C344.31 0 345.202 0.893525 345.202 1.99448C345.202 3.09543 344.31 3.98895 343.21 3.98895C342.111 3.98895 341.218 3.09543 341.218 1.99448ZM331.697 1.99448C331.697 0.893525 332.589 0 333.689 0C334.788 0 335.681 0.893525 335.681 1.99448C335.681 3.09543 334.788 3.98895 333.689 3.98895C332.589 3.98895 331.697 3.09543 331.697 1.99448ZM322.183 1.99448C322.183 0.893525 323.076 0 324.175 0C325.275 0 326.167 0.893525 326.167 1.99448C326.167 3.09543 325.275 3.98895 324.175 3.98895C323.076 3.98895 322.183 3.09543 322.183 1.99448ZM312.661 1.99448C312.661 0.893525 313.554 0 314.653 0C315.761 0 316.645 0.893525 316.645 1.99448C316.645 3.09543 315.761 3.98895 314.653 3.98895C313.554 3.98895 312.661 3.09543 312.661 1.99448ZM303.148 1.99448C303.148 0.893525 304.04 0 305.14 0C306.239 0 307.132 0.893525 307.132 1.99448C307.132 3.09543 306.239 3.98895 305.14 3.98895C304.04 3.98895 303.148 3.09543 303.148 1.99448ZM293.634 1.99448C293.634 0.893525 294.526 0 295.626 0C296.726 0 297.618 0.893525 297.618 1.99448C297.618 3.09543 296.726 3.98895 295.626 3.98895C294.526 3.98895 293.634 3.09543 293.634 1.99448ZM284.112 1.99448C284.112 0.893525 285.005 0 286.104 0C287.204 0 288.096 0.893525 288.096 1.99448C288.096 3.09543 287.204 3.98895 286.104 3.98895C285.005 3.98895 284.112 3.09543 284.112 1.99448ZM274.599 1.99448C274.599 0.893525 275.491 0 276.591 0C277.69 0 278.583 0.893525 278.583 1.99448C278.583 3.09543 277.69 3.98895 276.591 3.98895C275.491 3.98895 274.599 3.09543 274.599 1.99448ZM265.077 1.99448C265.077 0.893525 265.969 0 267.069 0C268.169 0 269.061 0.893525 269.061 1.99448C269.061 3.09543 268.169 3.98895 267.069 3.98895C265.969 3.98895 265.077 3.09543 265.077 1.99448ZM255.563 1.99448C255.563 0.893525 256.456 0 257.555 0C258.655 0 259.547 0.893525 259.547 1.99448C259.547 3.09543 258.655 3.98895 257.555 3.98895C256.456 3.98895 255.563 3.09543 255.563 1.99448ZM246.05 1.99448C246.05 0.893525 246.934 0 248.034 0C249.141 0 250.034 0.893525 250.034 1.99448C250.034 3.09543 249.141 3.98895 248.034 3.98895C246.934 3.98895 246.05 3.09543 246.05 1.99448ZM236.528 1.99448C236.528 0.893525 237.42 0 238.52 0C239.62 0 240.512 0.893525 240.512 1.99448C240.512 3.09543 239.62 3.98895 238.52 3.98895C237.42 3.98895 236.528 3.09543 236.528 1.99448ZM227.014 1.99448C227.014 0.893525 227.907 0 229.006 0C230.106 0 230.998 0.893525 230.998 1.99448C230.998 3.09543 230.106 3.98895 229.006 3.98895C227.907 3.98895 227.014 3.09543 227.014 1.99448ZM217.493 1.99448C217.493 0.893525 218.385 0 219.485 0C220.584 0 221.477 0.893525 221.477 1.99448C221.477 3.09543 220.584 3.98895 219.485 3.98895C218.385 3.98895 217.493 3.09543 217.493 1.99448ZM207.979 1.99448C207.979 0.893525 208.871 0 209.971 0C211.071 0 211.963 0.893525 211.963 1.99448C211.963 3.09543 211.071 3.98895 209.971 3.98895C208.871 3.98895 207.979 3.09543 207.979 1.99448ZM198.457 1.99448C198.457 0.893525 199.35 0 200.449 0C201.549 0 202.441 0.893525 202.441 1.99448C202.441 3.09543 201.549 3.98895 200.449 3.98895C199.35 3.98895 198.457 3.09543 198.457 1.99448ZM188.944 1.99448C188.944 0.893525 189.836 0 190.936 0C192.035 0 192.928 0.893525 192.928 1.99448C192.928 3.09543 192.035 3.98895 190.936 3.98895C189.836 3.98895 188.944 3.09543 188.944 1.99448ZM179.43 1.99448C179.43 0.893525 180.314 0 181.422 0C182.521 0 183.414 0.893525 183.414 1.99448C183.414 3.09543 182.521 3.98895 181.422 3.98895C180.314 3.98895 179.43 3.09543 179.43 1.99448ZM169.908 1.99448C169.908 0.893525 170.801 0 171.9 0C173 0 173.892 0.893525 173.892 1.99448C173.892 3.09543 173 3.98895 171.9 3.98895C170.801 3.98895 169.908 3.09543 169.908 1.99448ZM160.395 1.99448C160.395 0.893525 161.287 0 162.387 0C163.486 0 164.379 0.893525 164.379 1.99448C164.379 3.09543 163.486 3.98895 162.387 3.98895C161.287 3.98895 160.395 3.09543 160.395 1.99448ZM150.873 1.99448C150.873 0.893525 151.765 0 152.865 0C153.964 0 154.857 0.893525 154.857 1.99448C154.857 3.09543 153.964 3.98895 152.865 3.98895C151.765 3.98895 150.873 3.09543 150.873 1.99448ZM141.359 1.99448C141.359 0.893525 142.252 0 143.351 0C144.451 0 145.343 0.893525 145.343 1.99448C145.343 3.09543 144.451 3.98895 143.351 3.98895C142.252 3.98895 141.359 3.09543 141.359 1.99448ZM131.846 1.99448C131.846 0.893525 132.73 0 133.838 0C134.937 0 135.822 0.893525 135.822 1.99448C135.822 3.09543 134.937 3.98895 133.838 3.98895C132.73 3.98895 131.846 3.09543 131.846 1.99448ZM122.324 1.99448C122.324 0.893525 123.216 0 124.316 0C125.415 0 126.308 0.893525 126.308 1.99448C126.308 3.09543 125.415 3.98895 124.316 3.98895C123.216 3.98895 122.324 3.09543 122.324 1.99448ZM112.81 1.99448C112.81 0.893525 113.703 0 114.802 0C115.902 0 116.794 0.893525 116.794 1.99448C116.794 3.09543 115.902 3.98895 114.802 3.98895C113.703 3.98895 112.81 3.09543 112.81 1.99448ZM103.289 1.99448C103.289 0.893525 104.181 0 105.281 0C106.38 0 107.273 0.893525 107.273 1.99448C107.273 3.09543 106.38 3.98895 105.281 3.98895C104.181 3.98895 103.289 3.09543 103.289 1.99448ZM93.7749 1.99448C93.7749 0.893525 94.6673 0 95.7668 0C96.8664 0 97.7588 0.893525 97.7588 1.99448C97.7588 3.09543 96.8664 3.98895 95.7668 3.98895C94.6673 3.98895 93.7749 3.09543 93.7749 1.99448ZM84.2532 1.99448C84.2532 0.893525 85.1456 0 86.2452 0C87.3448 0 88.2372 0.893525 88.2372 1.99448C88.2372 3.09543 87.3448 3.98895 86.2452 3.98895C85.1456 3.98895 84.2532 3.09543 84.2532 1.99448ZM74.7395 1.99448C74.7395 0.893525 75.6319 0 76.7315 0C77.8311 0 78.7235 0.893525 78.7235 1.99448C78.7235 3.09543 77.8311 3.98895 76.7315 3.98895C75.6319 3.98895 74.7395 3.09543 74.7395 1.99448Z" fill="#600F41"/>
</svg>
