<svg width="581" height="4" viewBox="0 0 581 4" fill="none" xmlns="http://www.w3.org/2000/svg">
<path d="M0 1.99448C0 0.893525 0.892406 0 1.99198 0C3.09155 0 3.98396 0.893525 3.98396 1.99448C3.98396 3.09543 3.09155 3.98895 1.99198 3.98895C0.892406 3.98895 0 3.09543 0 1.99448ZM576.989 1.99448C576.989 0.893525 577.873 0 578.981 0C580.08 0 580.973 0.893525 580.973 1.99448C580.973 3.09543 580.08 3.98895 578.981 3.98895C577.873 3.98895 576.989 3.09543 576.989 1.99448ZM566.678 1.99448C566.678 0.893525 567.57 0 568.67 0C569.778 0 570.662 0.893525 570.67 1.99448C570.67 3.09543 569.778 3.98895 568.67 3.98895C567.57 3.98895 566.678 3.09543 566.678 1.99448ZM556.376 1.99448C556.376 0.893525 557.268 0 558.368 0C559.467 0 560.359 0.893525 560.359 1.99448C560.359 3.09543 559.467 3.98895 558.368 3.98895C557.268 3.98895 556.376 3.09543 556.376 1.99448ZM546.073 1.99448C546.073 0.893525 546.965 0 548.065 0C549.165 0 550.057 0.893525 550.057 1.99448C550.057 3.09543 549.165 3.98895 548.065 3.98895C546.965 3.98895 546.073 3.09543 546.073 1.99448ZM535.771 1.99448C535.771 0.893525 536.663 0 537.763 0C538.862 0 539.755 0.893525 539.755 1.99448C539.755 3.09543 538.862 3.98895 537.763 3.98895C536.663 3.98895 535.771 3.09543 535.771 1.99448ZM525.468 1.99448C525.468 0.893525 526.36 0 527.46 0C528.56 0 529.452 0.893525 529.452 1.99448C529.452 3.09543 528.56 3.98895 527.46 3.98895C526.36 3.98895 525.468 3.09543 525.468 1.99448ZM515.165 1.99448C515.165 0.893525 516.058 0 517.157 0C518.257 0 519.149 0.893525 519.149 1.99448C519.149 3.09543 518.257 3.98895 517.157 3.98895C516.058 3.98895 515.165 3.09543 515.165 1.99448ZM504.863 1.99448C504.863 0.893525 505.755 0 506.855 0C507.955 0 508.847 0.893525 508.847 1.99448C508.847 3.09543 507.955 3.98895 506.855 3.98895C505.755 3.98895 504.863 3.09543 504.863 1.99448ZM494.56 1.99448C494.56 0.893525 495.453 0 496.552 0C497.652 0 498.544 0.893525 498.544 1.99448C498.544 3.09543 497.652 3.98895 496.552 3.98895C495.453 3.98895 494.56 3.09543 494.56 1.99448ZM484.258 1.99448C484.258 0.893525 485.15 0 486.242 0C487.35 0 488.242 0.893525 488.242 1.99448C488.242 3.09543 487.35 3.98895 486.25 3.98895C485.15 3.98895 484.258 3.09543 484.258 1.99448ZM473.955 1.99448C473.955 0.893525 474.848 0 475.947 0C477.047 0 477.931 0.893525 477.931 1.99448C477.931 3.09543 477.047 3.98895 475.947 3.98895C474.848 3.98895 473.955 3.09543 473.955 1.99448ZM463.645 1.99448C463.645 0.893525 464.537 0 465.637 0C466.745 0 467.637 0.893525 467.637 1.99448C467.637 3.09543 466.745 3.98895 465.637 3.98895C464.537 3.98895 463.645 3.09543 463.645 1.99448ZM453.342 1.99448C453.342 0.893525 454.235 0 455.334 0C456.434 0 457.326 0.893525 457.326 1.99448C457.326 3.09543 456.434 3.98895 455.334 3.98895C454.235 3.98895 453.342 3.09543 453.342 1.99448ZM443.04 1.99448C443.04 0.893525 443.932 0 445.032 0C446.132 0 447.024 0.893525 447.024 1.99448C447.024 3.09543 446.132 3.98895 445.032 3.98895C443.932 3.98895 443.04 3.09543 443.04 1.99448ZM432.737 1.99448C432.737 0.893525 433.63 0 434.729 0C435.829 0 436.721 0.893525 436.721 1.99448C436.721 3.09543 435.829 3.98895 434.729 3.98895C433.63 3.98895 432.737 3.09543 432.737 1.99448ZM422.435 1.99448C422.435 0.893525 423.327 0 424.427 0C425.526 0 426.419 0.893525 426.419 1.99448C426.419 3.09543 425.526 3.98895 424.427 3.98895C423.327 3.98895 422.435 3.09543 422.435 1.99448ZM412.132 1.99448C412.132 0.893525 413.025 0 414.124 0C415.224 0 416.116 0.893525 416.116 1.99448C416.116 3.09543 415.224 3.98895 414.124 3.98895C413.025 3.98895 412.132 3.09543 412.132 1.99448ZM401.83 1.99448C401.83 0.893525 402.722 0 403.822 0C404.921 0 405.814 0.893525 405.814 1.99448C405.814 3.09543 404.921 3.98895 403.822 3.98895C402.722 3.98895 401.83 3.09543 401.83 1.99448ZM391.527 1.99448C391.527 0.893525 392.42 0 393.519 0C394.619 0 395.511 0.893525 395.511 1.99448C395.511 3.09543 394.619 3.98895 393.519 3.98895C392.42 3.98895 391.527 3.09543 391.527 1.99448ZM381.225 1.99448C381.225 0.893525 382.109 0 383.217 0C384.316 0 385.209 0.893525 385.209 1.99448C385.209 3.09543 384.316 3.98895 383.217 3.98895C382.109 3.98895 381.225 3.09543 381.225 1.99448ZM370.922 1.99448C370.922 0.893525 371.807 0 372.906 0C374.014 0 374.898 0.893525 374.898 1.99448C374.898 3.09543 374.014 3.98895 372.906 3.98895C371.807 3.98895 370.922 3.09543 370.922 1.99448ZM360.62 1.99448C360.612 0.893525 361.504 0 362.604 0C363.703 0 364.596 0.893525 364.596 1.99448C364.596 3.09543 363.703 3.98895 362.604 3.98895C361.504 3.98895 360.62 3.09543 360.62 1.99448ZM350.309 1.99448C350.309 0.893525 351.202 0 352.301 0C353.401 0 354.293 0.893525 354.293 1.99448C354.293 3.09543 353.401 3.98895 352.301 3.98895C351.202 3.98895 350.309 3.09543 350.309 1.99448ZM340.007 1.99448C340.007 0.893525 340.899 0 341.999 0C343.098 0 343.991 0.893525 343.991 1.99448C343.991 3.09543 343.098 3.98895 341.999 3.98895C340.899 3.98895 340.007 3.09543 340.007 1.99448ZM329.704 1.99448C329.704 0.893525 330.597 0 331.696 0C332.796 0 333.688 0.893525 333.688 1.99448C333.688 3.09543 332.796 3.98895 331.696 3.98895C330.597 3.98895 329.704 3.09543 329.704 1.99448ZM319.402 1.99448C319.402 0.893525 320.294 0 321.394 0C322.493 0 323.386 0.893525 323.386 1.99448C323.386 3.09543 322.493 3.98895 321.394 3.98895C320.294 3.98895 319.402 3.09543 319.402 1.99448ZM309.099 1.99448C309.099 0.893525 309.992 0 311.091 0C312.191 0 313.083 0.893525 313.083 1.99448C313.083 3.09543 312.191 3.98895 311.091 3.98895C309.992 3.98895 309.099 3.09543 309.099 1.99448ZM298.797 1.99448C298.797 0.893525 299.689 0 300.789 0C301.888 0 302.781 0.893525 302.781 1.99448C302.781 3.09543 301.888 3.98895 300.789 3.98895C299.689 3.98895 298.797 3.09543 298.797 1.99448ZM288.494 1.99448C288.494 0.893525 289.387 0 290.486 0C291.586 0 292.478 0.893525 292.478 1.99448C292.478 3.09543 291.586 3.98895 290.486 3.98895C289.387 3.98895 288.494 3.09543 288.494 1.99448ZM278.192 1.99448C278.192 0.893525 279.084 0 280.184 0C281.283 0 282.176 0.893525 282.176 1.99448C282.176 3.09543 281.283 3.98895 280.184 3.98895C279.084 3.98895 278.192 3.09543 278.192 1.99448ZM267.881 1.99448C267.881 0.893525 268.774 0 269.873 0C270.981 0 271.873 0.893525 271.873 1.99448C271.873 3.09543 270.981 3.98895 269.881 3.98895C268.774 3.98895 267.881 3.09543 267.881 1.99448ZM257.579 1.99448C257.579 0.893525 258.471 0 259.571 0C260.67 0 261.563 0.893525 261.563 1.99448C261.563 3.09543 260.67 3.98895 259.571 3.98895C258.471 3.98895 257.579 3.09543 257.579 1.99448ZM247.276 1.99448C247.276 0.893525 248.169 0 249.268 0C250.368 0 251.26 0.893525 251.26 1.99448C251.26 3.09543 250.368 3.98895 249.268 3.98895C248.169 3.98895 247.276 3.09543 247.276 1.99448ZM236.974 1.99448C236.974 0.893525 237.866 0 238.966 0C240.065 0 240.958 0.893525 240.958 1.99448C240.958 3.09543 240.065 3.98895 238.966 3.98895C237.866 3.98895 236.974 3.09543 236.974 1.99448ZM226.671 1.99448C226.671 0.893525 227.564 0 228.663 0C229.763 0 230.655 0.893525 230.655 1.99448C230.655 3.09543 229.763 3.98895 228.663 3.98895C227.564 3.98895 226.671 3.09543 226.671 1.99448ZM216.369 1.99448C216.369 0.893525 217.261 0 218.361 0C219.46 0 220.353 0.893525 220.353 1.99448C220.353 3.09543 219.46 3.98895 218.361 3.98895C217.261 3.98895 216.369 3.09543 216.369 1.99448ZM206.066 1.99448C206.066 0.893525 206.959 0 208.058 0C209.158 0 210.05 0.893525 210.05 1.99448C210.05 3.09543 209.158 3.98895 208.058 3.98895C206.959 3.98895 206.066 3.09543 206.066 1.99448ZM195.764 1.99448C195.764 0.893525 196.656 0 197.756 0C198.855 0 199.748 0.893525 199.748 1.99448C199.748 3.09543 198.855 3.98895 197.756 3.98895C196.656 3.98895 195.764 3.09543 195.764 1.99448ZM185.461 1.99448C185.461 0.893525 186.346 0 187.453 0C188.553 0 189.445 0.893525 189.445 1.99448C189.445 3.09543 188.553 3.98895 187.453 3.98895C186.346 3.98895 185.461 3.09543 185.461 1.99448ZM175.159 1.99448C175.159 0.893525 176.051 0 177.143 0C178.25 0 179.135 0.893525 179.143 1.99448C179.143 3.09543 178.25 3.98895 177.143 3.98895C176.051 3.98895 175.159 3.09543 175.159 1.99448ZM164.856 1.99448C164.848 0.893525 165.741 0 166.84 0C167.94 0 168.832 0.893525 168.832 1.99448C168.832 3.09543 167.94 3.98895 166.84 3.98895C165.741 3.98895 164.856 3.09543 164.856 1.99448ZM154.546 1.99448C154.546 0.893525 155.438 0 156.538 0C157.637 0 158.53 0.893525 158.53 1.99448C158.53 3.09543 157.637 3.98895 156.538 3.98895C155.438 3.98895 154.546 3.09543 154.546 1.99448ZM144.243 1.99448C144.243 0.893525 145.136 0 146.235 0C147.335 0 148.227 0.893525 148.227 1.99448C148.227 3.09543 147.335 3.98895 146.235 3.98895C145.136 3.98895 144.243 3.09543 144.243 1.99448ZM133.941 1.99448C133.941 0.893525 134.833 0 135.933 0C137.032 0 137.925 0.893525 137.925 1.99448C137.925 3.09543 137.032 3.98895 135.933 3.98895C134.833 3.98895 133.941 3.09543 133.941 1.99448ZM123.638 1.99448C123.638 0.893525 124.531 0 125.63 0C126.73 0 127.622 0.893525 127.622 1.99448C127.622 3.09543 126.73 3.98895 125.63 3.98895C124.531 3.98895 123.638 3.09543 123.638 1.99448ZM113.336 1.99448C113.336 0.893525 114.228 0 115.328 0C116.427 0 117.32 0.893525 117.32 1.99448C117.32 3.09543 116.427 3.98895 115.328 3.98895C114.228 3.98895 113.336 3.09543 113.336 1.99448ZM103.033 1.99448C103.033 0.893525 103.926 0 105.025 0C106.125 0 107.017 0.893525 107.017 1.99448C107.017 3.09543 106.125 3.98895 105.025 3.98895C103.926 3.98895 103.033 3.09543 103.033 1.99448ZM92.7306 1.99448C92.7306 0.893525 93.623 0 94.7226 0C95.8221 0 96.7145 0.893525 96.7145 1.99448C96.7145 3.09543 95.8221 3.98895 94.7226 3.98895C93.623 3.98895 92.7306 3.09543 92.7306 1.99448ZM82.4281 1.99448C82.4281 0.893525 83.3205 0 84.4201 0C85.5196 0 86.412 0.893525 86.412 1.99448C86.412 3.09543 85.5196 3.98895 84.4201 3.98895C83.3205 3.98895 82.4281 3.09543 82.4281 1.99448ZM72.1176 1.99448C72.1176 0.893525 73.01 0 74.1096 0C75.2171 0 76.1095 0.893525 76.1095 1.99448C76.1095 3.09543 75.2171 3.98895 74.1175 3.98895C73.01 3.98895 72.1176 3.09543 72.1176 1.99448ZM61.8151 1.99448C61.8151 0.893525 62.7075 0 63.8071 0C64.9066 0 65.799 0.893525 65.799 1.99448C65.799 3.09543 64.9066 3.98895 63.8071 3.98895C62.7075 3.98895 61.8151 3.09543 61.8151 1.99448ZM51.5126 1.99448C51.5126 0.893525 52.405 0 53.5045 0C54.6041 0 55.4965 0.893525 55.4965 1.99448C55.4965 3.09543 54.6041 3.98895 53.5045 3.98895C52.405 3.98895 51.5126 3.09543 51.5126 1.99448ZM41.21 1.99448C41.21 0.893525 42.1025 0 43.202 0C44.3016 0 45.194 0.893525 45.194 1.99448C45.194 3.09543 44.3016 3.98895 43.202 3.98895C42.1025 3.98895 41.21 3.09543 41.21 1.99448ZM30.9075 1.99448C30.9075 0.893525 31.7999 0 32.8995 0C33.9991 0 34.8915 0.893525 34.8915 1.99448C34.8915 3.09543 33.9991 3.98895 32.8995 3.98895C31.7999 3.98895 30.9075 3.09543 30.9075 1.99448ZM20.605 1.99448C20.605 0.893525 21.4974 0 22.597 0C23.6966 0 24.589 0.893525 24.589 1.99448C24.589 3.09543 23.6966 3.98895 22.597 3.98895C21.4974 3.98895 20.605 3.09543 20.605 1.99448ZM10.3025 1.99448C10.3025 0.893525 11.1949 0 12.2945 0C13.3941 0 14.2865 0.893525 14.2865 1.99448C14.2865 3.09543 13.3941 3.98895 12.2945 3.98895C11.1949 3.98895 10.3025 3.09543 10.3025 1.99448Z" fill="#600F41"/>
</svg>
