<svg width="66" height="147" viewBox="0 0 66 147" fill="none" xmlns="http://www.w3.org/2000/svg">
<path d="M63.1537 146.119C62.0621 145.967 61.3051 144.954 61.4645 143.861C61.6159 142.768 62.6278 142.018 63.7194 142.17C64.803 142.329 65.56 143.334 65.4086 144.427C65.2652 145.425 64.4126 146.143 63.4405 146.143C63.3449 146.143 63.2493 146.135 63.1537 146.119ZM52.8751 143.885C51.8233 143.574 51.2178 142.465 51.5285 141.404C51.8392 140.351 52.9468 139.744 53.9986 140.055C55.0503 140.367 55.6559 141.475 55.3451 142.529C55.0902 143.398 54.2934 143.965 53.4328 143.965C53.2496 143.965 53.0583 143.941 52.8671 143.885H52.8751ZM43.0267 140.191C42.0307 139.736 41.5925 138.556 42.0467 137.55C42.5088 136.553 43.6881 136.106 44.692 136.569C45.688 137.024 46.1263 138.213 45.6721 139.21C45.3374 139.944 44.6124 140.374 43.8554 140.374C43.5765 140.374 43.2976 140.319 43.0267 140.191ZM33.8158 135.141C32.8915 134.543 32.6206 133.306 33.2182 132.381C33.8158 131.455 35.0509 131.192 35.9751 131.782C36.8994 132.381 37.1624 133.617 36.5648 134.543C36.1823 135.133 35.5449 135.46 34.8915 135.46C34.525 135.46 34.1505 135.356 33.8158 135.141ZM25.4097 128.823C24.573 128.097 24.4854 126.836 25.2105 126.006C25.9276 125.177 27.1865 125.081 28.0232 125.807C28.8518 126.533 28.9395 127.793 28.2144 128.623C27.824 129.078 27.2662 129.309 26.7164 129.309C26.2463 129.309 25.7842 129.15 25.4097 128.823ZM17.9756 121.371C17.2585 120.541 17.3461 119.281 18.1828 118.563C19.0114 117.837 20.2704 117.925 20.9875 118.762C21.7046 119.592 21.617 120.853 20.7883 121.579C20.4138 121.906 19.9437 122.065 19.4816 122.065C18.9238 122.065 18.374 121.826 17.9756 121.371ZM11.673 112.946C11.0834 112.021 11.3463 110.784 12.2706 110.194C13.1949 109.596 14.4299 109.859 15.0275 110.792C15.6171 111.718 15.3542 112.946 14.4299 113.545C14.0952 113.76 13.7207 113.864 13.3542 113.864C12.6929 113.864 12.0555 113.537 11.673 112.946ZM6.6293 103.708C6.17513 102.703 6.61337 101.522 7.61733 101.059C8.61332 100.605 9.80053 101.043 10.2547 102.049C10.7089 103.046 10.2706 104.235 9.26668 104.689C9.00374 104.817 8.7169 104.873 8.44599 104.873C7.68904 104.873 6.96396 104.442 6.6293 103.708ZM2.9561 93.8314C2.64535 92.7783 3.25091 91.6694 4.31064 91.3583C5.36241 91.0472 6.46995 91.6535 6.7807 92.7145C7.09144 93.7676 6.48588 94.8765 5.42615 95.1877C5.24289 95.2435 5.05166 95.2675 4.8684 95.2675C4.00786 95.2675 3.21107 94.701 2.9561 93.8314ZM0.741016 83.5399C0.581658 82.4549 1.33861 81.4417 2.43021 81.2902C3.51385 81.1306 4.52578 81.8885 4.68513 82.9815C4.83652 84.0745 4.07957 85.0797 2.98797 85.2392C2.89235 85.2472 2.79674 85.2552 2.70909 85.2552C1.72904 85.2552 0.876471 84.5372 0.741016 83.5399ZM0 73.049C0 71.9401 0.892406 71.0465 1.99198 71.0545C3.09155 71.0545 3.98396 71.9481 3.98396 73.049C3.98396 74.15 3.09155 75.0435 1.99198 75.0435C0.892406 75.0435 0 74.15 0 73.049ZM2.43818 64.8078C1.34658 64.6483 0.589626 63.6351 0.741016 62.5501C0.900374 61.4571 1.9123 60.6992 2.99594 60.8588C4.08754 61.0104 4.84449 62.0236 4.6931 63.1085C4.54968 64.1058 3.69711 64.8238 2.71706 64.8238C2.62941 64.8238 2.5338 64.8238 2.43818 64.8078ZM4.32658 54.7318C3.26684 54.4206 2.66128 53.3117 2.97203 52.2586C3.28278 51.2055 4.39032 50.5992 5.45005 50.9103C6.50182 51.2135 7.10738 52.3224 6.79663 53.3835C6.54166 54.2531 5.74487 54.8115 4.88433 54.8115C4.70107 54.8115 4.50984 54.7876 4.32658 54.7318ZM7.63326 45.0386C6.63727 44.5838 6.19904 43.3951 6.65321 42.3979C7.10738 41.3927 8.2946 40.9539 9.29059 41.4086C10.2945 41.8714 10.7328 43.0521 10.2706 44.0573C9.93599 44.7913 9.21091 45.2221 8.45396 45.2221C8.17508 45.2221 7.8962 45.1582 7.62529 45.0386H7.63326ZM12.2945 35.9198C11.3702 35.3215 11.0993 34.0929 11.6969 33.1675C12.2945 32.2421 13.5295 31.9708 14.4538 32.5691C15.3781 33.1675 15.641 34.3961 15.0514 35.3215C14.6689 35.9198 14.0235 36.239 13.3702 36.239C13.0036 36.239 12.6291 36.1353 12.2945 35.9198ZM18.2067 27.559C17.3701 26.833 17.2824 25.5805 18.0075 24.7428C18.7246 23.9131 19.9835 23.8254 20.8122 24.5434C21.6488 25.2694 21.7365 26.5299 21.0114 27.3596C20.621 27.8143 20.0632 28.0457 19.5134 28.0457C19.0433 28.0457 18.5812 27.8861 18.2067 27.559ZM25.2424 20.1156C24.5173 19.2859 24.6049 18.0254 25.4416 17.2994C26.2702 16.5814 27.5291 16.6692 28.2463 17.4989C28.9713 18.3366 28.8757 19.5971 28.0471 20.3151C27.6726 20.6422 27.2104 20.8017 26.7483 20.8017C26.1905 20.8017 25.6328 20.5704 25.2424 20.1156ZM33.2581 13.7413C32.6605 12.8159 32.9234 11.5793 33.8557 10.9889C34.7799 10.3906 36.007 10.6538 36.6046 11.5872C37.2022 12.5127 36.9313 13.7413 36.007 14.3396C35.6724 14.555 35.2979 14.6587 34.9313 14.6587C34.278 14.6587 33.6405 14.3317 33.2581 13.7413ZM42.0945 8.5716C41.6403 7.57437 42.0786 6.39364 43.0825 5.93092C44.0865 5.47618 45.2657 5.91497 45.7279 6.91221C46.182 7.91743 45.7438 9.09816 44.7478 9.56088C44.4769 9.68055 44.1901 9.73637 43.9191 9.73637C43.1622 9.73637 42.4371 9.30557 42.1025 8.5716H42.0945ZM51.5843 4.72625C51.2735 3.66519 51.8791 2.55628 52.9388 2.25312C53.9906 1.94198 55.0981 2.5483 55.4089 3.60139C55.7196 4.66245 55.1141 5.76338 54.0543 6.07452C53.8711 6.13036 53.6798 6.16229 53.4966 6.16229C52.636 6.16229 51.8392 5.59584 51.5843 4.72625ZM61.5203 2.27705C61.3689 1.18408 62.1258 0.178852 63.2095 0.0192937C64.3011 -0.132286 65.313 0.625618 65.4644 1.71859C65.6237 2.80358 64.8668 3.81678 63.7752 3.96836C63.6796 3.98432 63.584 3.9923 63.4963 3.9923C62.5163 3.9923 61.6637 3.27429 61.5203 2.27705Z" fill="#600F41"/>
</svg>
