<svg width="583" height="4" viewBox="0 0 583 4" fill="none" xmlns="http://www.w3.org/2000/svg">
<path d="M578.622 1.99448C578.622 0.893525 579.506 0 580.614 0C581.714 0 582.606 0.893525 582.606 1.99448C582.606 3.09543 581.714 3.98895 580.614 3.98895C579.506 3.98895 578.622 3.09543 578.622 1.99448ZM569.132 1.99448C569.132 0.893525 570.025 0 571.124 0C572.224 0 573.116 0.893525 573.116 1.99448C573.116 3.09543 572.224 3.98895 571.124 3.98895C570.025 3.98895 569.132 3.09543 569.132 1.99448ZM559.65 1.99448C559.65 0.893525 560.543 0 561.642 0C562.742 0 563.634 0.893525 563.634 1.99448C563.634 3.09543 562.742 3.98895 561.642 3.98895C560.543 3.98895 559.65 3.09543 559.65 1.99448ZM550.161 1.99448C550.161 0.893525 551.053 0 552.153 0C553.252 0 554.145 0.893525 554.145 1.99448C554.145 3.09543 553.252 3.98895 552.153 3.98895C551.053 3.98895 550.161 3.09543 550.161 1.99448ZM540.679 1.99448C540.679 0.893525 541.571 0 542.671 0C543.77 0 544.663 0.893525 544.663 1.99448C544.663 3.09543 543.77 3.98895 542.671 3.98895C541.571 3.98895 540.679 3.09543 540.679 1.99448ZM531.189 1.99448C531.189 0.893525 532.081 0 533.181 0C534.281 0 535.173 0.893525 535.173 1.99448C535.173 3.09543 534.281 3.98895 533.181 3.98895C532.081 3.98895 531.189 3.09543 531.189 1.99448ZM521.707 1.99448C521.707 0.893525 522.6 0 523.699 0C524.799 0 525.691 0.893525 525.691 1.99448C525.691 3.09543 524.799 3.98895 523.699 3.98895C522.6 3.98895 521.707 3.09543 521.707 1.99448ZM512.217 1.99448C512.217 0.893525 513.11 0 514.209 0C515.309 0 516.201 0.893525 516.201 1.99448C516.201 3.09543 515.309 3.98895 514.209 3.98895C513.11 3.98895 512.217 3.09543 512.217 1.99448ZM502.736 1.99448C502.736 0.893525 503.628 0 504.728 0C505.827 0 506.719 0.893525 506.719 1.99448C506.719 3.09543 505.827 3.98895 504.728 3.98895C503.628 3.98895 502.736 3.09543 502.736 1.99448ZM493.246 1.99448C493.246 0.893525 494.138 0 495.238 0C496.337 0 497.23 0.893525 497.23 1.99448C497.23 3.09543 496.337 3.98895 495.238 3.98895C494.138 3.98895 493.246 3.09543 493.246 1.99448ZM483.764 1.99448C483.764 0.893525 484.656 0 485.756 0C486.855 0 487.748 0.893525 487.748 1.99448C487.748 3.09543 486.855 3.98895 485.756 3.98895C484.656 3.98895 483.764 3.09543 483.764 1.99448ZM474.274 1.99448C474.274 0.893525 475.167 0 476.266 0C477.366 0 478.258 0.893525 478.258 1.99448C478.258 3.09543 477.366 3.98895 476.266 3.98895C475.167 3.98895 474.274 3.09543 474.274 1.99448ZM464.792 1.99448C464.792 0.893525 465.685 0 466.784 0C467.884 0 468.776 0.893525 468.776 1.99448C468.776 3.09543 467.884 3.98895 466.784 3.98895C465.685 3.98895 464.792 3.09543 464.792 1.99448ZM455.303 1.99448C455.303 0.893525 456.195 0 457.295 0C458.394 0 459.287 0.893525 459.287 1.99448C459.287 3.09543 458.394 3.98895 457.295 3.98895C456.195 3.98895 455.303 3.09543 455.303 1.99448ZM445.821 1.99448C445.821 0.893525 446.713 0 447.813 0C448.912 0 449.805 0.893525 449.805 1.99448C449.805 3.09543 448.912 3.98895 447.813 3.98895C446.713 3.98895 445.821 3.09543 445.821 1.99448ZM436.331 1.99448C436.331 0.893525 437.223 0 438.323 0C439.422 0 440.315 0.893525 440.315 1.99448C440.315 3.09543 439.422 3.98895 438.323 3.98895C437.223 3.98895 436.331 3.09543 436.331 1.99448ZM426.849 1.99448C426.849 0.893525 427.742 0 428.841 0C429.941 0 430.833 0.893525 430.833 1.99448C430.833 3.09543 429.941 3.98895 428.841 3.98895C427.742 3.98895 426.849 3.09543 426.849 1.99448ZM417.359 1.99448C417.359 0.893525 418.252 0 419.359 0C420.459 0 421.351 0.893525 421.351 1.99448C421.351 3.09543 420.459 3.98895 419.359 3.98895C418.252 3.98895 417.359 3.09543 417.359 1.99448ZM407.878 1.99448C407.878 0.893525 408.77 0 409.87 0C410.969 0 411.862 0.893525 411.862 1.99448C411.862 3.09543 410.969 3.98895 409.87 3.98895C408.77 3.98895 407.878 3.09543 407.878 1.99448ZM398.396 1.99448C398.396 0.893525 399.28 0 400.388 0C401.487 0 402.38 0.893525 402.38 1.99448C402.38 3.09543 401.487 3.98895 400.388 3.98895C399.28 3.98895 398.396 3.09543 398.396 1.99448ZM388.906 1.99448C388.906 0.893525 389.798 0 390.898 0C391.997 0 392.89 0.893525 392.89 1.99448C392.89 3.09543 391.997 3.98895 390.898 3.98895C389.798 3.98895 388.906 3.09543 388.906 1.99448ZM379.424 1.99448C379.424 0.893525 380.316 0 381.416 0C382.516 0 383.408 0.893525 383.408 1.99448C383.408 3.09543 382.516 3.98895 381.416 3.98895C380.316 3.98895 379.424 3.09543 379.424 1.99448ZM369.934 1.99448C369.934 0.893525 370.827 0 371.926 0C373.026 0 373.918 0.893525 373.918 1.99448C373.918 3.09543 373.026 3.98895 371.926 3.98895C370.827 3.98895 369.934 3.09543 369.934 1.99448ZM360.452 1.99448C360.452 0.893525 361.345 0 362.444 0C363.544 0 364.436 0.893525 364.436 1.99448C364.436 3.09543 363.544 3.98895 362.444 3.98895C361.345 3.98895 360.452 3.09543 360.452 1.99448ZM350.963 1.99448C350.963 0.893525 351.855 0 352.955 0C354.054 0 354.947 0.893525 354.947 1.99448C354.947 3.09543 354.054 3.98895 352.955 3.98895C351.855 3.98895 350.963 3.09543 350.963 1.99448ZM341.481 1.99448C341.481 0.893525 342.373 0 343.473 0C344.572 0 345.465 0.893525 345.465 1.99448C345.465 3.09543 344.572 3.98895 343.473 3.98895C342.373 3.98895 341.481 3.09543 341.481 1.99448ZM331.991 1.99448C331.991 0.893525 332.884 0 333.983 0C335.083 0 335.975 0.893525 335.975 1.99448C335.975 3.09543 335.083 3.98895 333.983 3.98895C332.884 3.98895 331.991 3.09543 331.991 1.99448ZM322.509 1.99448C322.509 0.893525 323.402 0 324.501 0C325.601 0 326.493 0.893525 326.493 1.99448C326.493 3.09543 325.601 3.98895 324.501 3.98895C323.402 3.98895 322.509 3.09543 322.509 1.99448ZM313.02 1.99448C313.02 0.893525 313.912 0 315.012 0C316.111 0 317.003 0.893525 317.003 1.99448C317.003 3.09543 316.111 3.98895 315.012 3.98895C313.912 3.98895 313.02 3.09543 313.02 1.99448ZM303.538 1.99448C303.538 0.893525 304.43 0 305.53 0C306.629 0 307.522 0.893525 307.522 1.99448C307.522 3.09543 306.629 3.98895 305.53 3.98895C304.43 3.98895 303.538 3.09543 303.538 1.99448ZM294.048 1.99448C294.048 0.893525 294.94 0 296.04 0C297.139 0 298.032 0.893525 298.032 1.99448C298.032 3.09543 297.139 3.98895 296.04 3.98895C294.94 3.98895 294.048 3.09543 294.048 1.99448ZM284.566 1.99448C284.566 0.893525 285.458 0 286.558 0C287.658 0 288.55 0.893525 288.55 1.99448C288.55 3.09543 287.658 3.98895 286.558 3.98895C285.458 3.98895 284.566 3.09543 284.566 1.99448ZM275.076 1.99448C275.076 0.893525 275.969 0 277.068 0C278.168 0 279.06 0.893525 279.06 1.99448C279.06 3.09543 278.168 3.98895 277.068 3.98895C275.969 3.98895 275.076 3.09543 275.076 1.99448ZM265.594 1.99448C265.594 0.893525 266.487 0 267.586 0C268.686 0 269.578 0.893525 269.578 1.99448C269.578 3.09543 268.686 3.98895 267.586 3.98895C266.487 3.98895 265.594 3.09543 265.594 1.99448ZM256.105 1.99448C256.105 0.893525 256.997 0 258.105 0C259.196 0 260.089 0.893525 260.089 1.99448C260.089 3.09543 259.196 3.98895 258.105 3.98895C256.997 3.98895 256.105 3.09543 256.105 1.99448ZM246.623 1.99448C246.623 0.893525 247.515 0 248.615 0C249.714 0 250.607 0.893525 250.607 1.99448C250.607 3.09543 249.714 3.98895 248.615 3.98895C247.515 3.98895 246.623 3.09543 246.623 1.99448ZM237.133 1.99448C237.133 0.893525 238.025 0 239.133 0C240.233 0 241.125 0.893525 241.125 1.99448C241.125 3.09543 240.233 3.98895 239.133 3.98895C238.025 3.98895 237.133 3.09543 237.133 1.99448ZM227.651 1.99448C227.651 0.893525 228.544 0 229.643 0C230.743 0 231.635 0.893525 231.635 1.99448C231.635 3.09543 230.743 3.98895 229.643 3.98895C228.544 3.98895 227.651 3.09543 227.651 1.99448ZM218.169 1.99448C218.169 0.893525 219.062 0 220.153 0C221.261 0 222.153 0.893525 222.153 1.99448C222.153 3.09543 221.261 3.98895 220.153 3.98895C219.062 3.98895 218.169 3.09543 218.169 1.99448ZM208.68 1.99448C208.68 0.893525 209.572 0 210.672 0C211.771 0 212.664 0.893525 212.664 1.99448C212.664 3.09543 211.771 3.98895 210.672 3.98895C209.572 3.98895 208.68 3.09543 208.68 1.99448ZM199.198 1.99448C199.198 0.893525 200.09 0 201.19 0C202.289 0 203.182 0.893525 203.182 1.99448C203.182 3.09543 202.289 3.98895 201.19 3.98895C200.09 3.98895 199.198 3.09543 199.198 1.99448ZM189.708 1.99448C189.708 0.893525 190.6 0 191.7 0C192.8 0 193.692 0.893525 193.692 1.99448C193.692 3.09543 192.8 3.98895 191.7 3.98895C190.6 3.98895 189.708 3.09543 189.708 1.99448ZM180.226 1.99448C180.226 0.893525 181.111 0 182.218 0C183.318 0 184.21 0.893525 184.21 1.99448C184.21 3.09543 183.318 3.98895 182.218 3.98895C181.111 3.98895 180.226 3.09543 180.226 1.99448ZM170.736 1.99448C170.736 0.893525 171.629 0 172.728 0C173.828 0 174.72 0.893525 174.72 1.99448C174.72 3.09543 173.828 3.98895 172.728 3.98895C171.629 3.98895 170.736 3.09543 170.736 1.99448ZM161.255 1.99448C161.255 0.893525 162.147 0 163.247 0C164.346 0 165.239 0.893525 165.239 1.99448C165.239 3.09543 164.346 3.98895 163.247 3.98895C162.147 3.98895 161.255 3.09543 161.255 1.99448ZM151.765 1.99448C151.765 0.893525 152.657 0 153.757 0C154.856 0 155.749 0.893525 155.749 1.99448C155.749 3.09543 154.856 3.98895 153.757 3.98895C152.657 3.98895 151.765 3.09543 151.765 1.99448ZM142.283 1.99448C142.283 0.893525 143.175 0 144.275 0C145.375 0 146.267 0.893525 146.267 1.99448C146.267 3.09543 145.375 3.98895 144.275 3.98895C143.175 3.98895 142.283 3.09543 142.283 1.99448ZM132.793 1.99448C132.793 0.893525 133.686 0 134.785 0C135.885 0 136.777 0.893525 136.777 1.99448C136.777 3.09543 135.885 3.98895 134.785 3.98895C133.686 3.98895 132.793 3.09543 132.793 1.99448ZM123.311 1.99448C123.311 0.893525 124.204 0 125.303 0C126.403 0 127.295 0.893525 127.295 1.99448C127.295 3.09543 126.403 3.98895 125.303 3.98895C124.204 3.98895 123.311 3.09543 123.311 1.99448ZM113.822 1.99448C113.822 0.893525 114.714 0 115.814 0C116.913 0 117.806 0.893525 117.806 1.99448C117.806 3.09543 116.913 3.98895 115.814 3.98895C114.714 3.98895 113.822 3.09543 113.822 1.99448ZM104.34 1.99448C104.34 0.893525 105.232 0 106.332 0C107.431 0 108.324 0.893525 108.324 1.99448C108.324 3.09543 107.431 3.98895 106.332 3.98895C105.232 3.98895 104.34 3.09543 104.34 1.99448ZM94.85 1.99448C94.85 0.893525 95.7425 0 96.842 0C97.9416 0 98.834 0.893525 98.834 1.99448C98.834 3.09543 97.9416 3.98895 96.842 3.98895C95.7425 3.98895 94.85 3.09543 94.85 1.99448ZM85.3682 1.99448C85.3682 0.893525 86.2606 0 87.3602 0C88.4598 0 89.3522 0.893525 89.3522 1.99448C89.3522 3.09543 88.4598 3.98895 87.3602 3.98895C86.2606 3.98895 85.3682 3.09543 85.3682 1.99448ZM75.8784 1.99448C75.8784 0.893525 76.7709 0 77.8704 0C78.97 0 79.8624 0.893525 79.8624 1.99448C79.8624 3.09543 78.97 3.98895 77.8704 3.98895C76.7709 3.98895 75.8784 3.09543 75.8784 1.99448ZM66.3966 1.99448C66.3966 0.893525 67.289 0 68.3886 0C69.4882 0 70.3806 0.893525 70.3806 1.99448C70.3806 3.09543 69.4882 3.98895 68.3886 3.98895C67.289 3.98895 66.3966 3.09543 66.3966 1.99448ZM56.9068 1.99448C56.9068 0.893525 57.7992 0 58.8988 0C60.0064 0 60.8988 0.893525 60.8988 1.99448C60.8988 3.09543 60.0064 3.98895 58.8988 3.98895C57.7992 3.98895 56.9068 3.09543 56.9068 1.99448ZM47.425 1.99448C47.425 0.893525 48.3174 0 49.417 0C50.5166 0 51.409 0.893525 51.409 1.99448C51.409 3.09543 50.5166 3.98895 49.417 3.98895C48.3174 3.98895 47.425 3.09543 47.425 1.99448ZM37.9432 1.99448C37.9432 0.893525 38.8356 0 39.9272 0C41.0348 0 41.9272 0.893525 41.9272 1.99448C41.9272 3.09543 41.0348 3.98895 39.9272 3.98895C38.8356 3.98895 37.9432 3.09543 37.9432 1.99448ZM28.4534 1.99448C28.4534 0.893525 29.3458 0 30.4454 0C31.545 0 32.4374 0.893525 32.4374 1.99448C32.4374 3.09543 31.545 3.98895 30.4454 3.98895C29.3458 3.98895 28.4534 3.09543 28.4534 1.99448ZM18.9716 1.99448C18.9716 0.893525 19.864 0 20.9636 0C22.0632 0 22.9556 0.893525 22.9556 1.99448C22.9556 3.09543 22.0632 3.98895 20.9636 3.98895C19.864 3.98895 18.9716 3.09543 18.9716 1.99448ZM9.48181 1.99448C9.48181 0.893525 10.3742 0 11.4738 0C12.5734 0 13.4658 0.893525 13.4658 1.99448C13.4658 3.09543 12.5734 3.98895 11.4738 3.98895C10.3742 3.98895 9.48181 3.09543 9.48181 1.99448ZM0 1.99448C0 0.893525 0.884439 0 1.99198 0C3.09155 0 3.98396 0.893525 3.98396 1.99448C3.98396 3.09543 3.09155 3.98895 1.99198 3.98895C0.884439 3.98895 0 3.09543 0 1.99448Z" fill="#600F41"/>
</svg>
